<?xml version="1.0" encoding="iso-8859-1"?>
<!-- Generator: Adobe Illustrator 19.0.0, SVG Export Plug-In . SVG Version: 6.00 Build 0)  -->
<svg version="1.1" xmlns="http://www.w3.org/2000/svg" xmlns:xlink="http://www.w3.org/1999/xlink" x="0px" y="0px"
	 viewBox="0 0 36 36" style="enable-background:new 0 0 36 36;" xml:space="preserve">
<g id="&#x42D;&#x43B;&#x43B;&#x438;&#x43F;&#x441;_2_1_" style="enable-background:new    ;">
</g>
<g id="&#x412;&#x435;&#x43A;&#x442;&#x43E;&#x440;&#x43D;&#x44B;&#x439;_&#x441;&#x43C;&#x430;&#x440;&#x442;-&#x43E;&#x431;&#x44A;&#x435;&#x43A;&#x442;_xA0_&#x418;&#x437;&#x43E;&#x431;&#x440;&#x430;&#x436;&#x435;&#x43D;&#x438;&#x435;_1_">
	<g>
		<g id="&#x42D;&#x43B;&#x43B;&#x438;&#x43F;&#x441;_2">
			<g>
				<circle style="fill-rule:evenodd;clip-rule:evenodd;fill:#464646;" cx="18" cy="18" r="18"/>
			</g>
		</g>
		<path style="fill:#FFFFFF;" d="M11.978,24.924c0,0-2.022-1.923-3.291-3.911c-1.279-2.004-1.543-2.79-2.271-2.842
			c-0.602-0.043-1.05,0.267-1.087,0.816c-0.038,0.558,0.729,2.542,1.951,4.625c1.192,2.03,3.301,5.258,3.572,5.79
			c0.27,0.531,0.938,0.778,1.376,0.451c0.332-0.248,9.517-11.331,13.285-15.591c4.186-4.732,8.056-8.665,8.142-9.582
			c0.085-0.917-0.095-1.223-0.65-1.35c-0.555-0.128-1.029,0.395-5.559,5.445C22.915,13.824,11.978,24.924,11.978,24.924"/>
	</g>
</g>
</svg>
