<?xml version="1.0" encoding="utf-8"?>
<!-- Generator: Adobe Illustrator 19.0.0, SVG Export Plug-In . SVG Version: 6.00 Build 0)  -->
<svg version="1.1" id="Слой_1" xmlns="http://www.w3.org/2000/svg" xmlns:xlink="http://www.w3.org/1999/xlink" x="0px" y="0px"
	 viewBox="-616.5 710.7 76.5 76.5" style="enable-background:new -616.5 710.7 76.5 76.5;" xml:space="preserve">
<style type="text/css">
	.st0{fill:#AA832E;}
</style>
<path class="st0" d="M-578.3,736.4c2.1,0,3.9,0.7,5.3,2.2s2.2,3.2,2.2,5.3c0,2.1-0.7,3.9-2.2,5.3s-3.2,2.2-5.3,2.2
	c-2.1,0-3.9-0.7-5.3-2.2s-2.2-3.2-2.2-5.3c0-2.1,0.7-3.9,2.2-5.3C-582.2,737.2-580.4,736.4-578.3,736.4L-578.3,736.4z M-559.7,744.1
	c0-2.6-0.5-4.9-1.5-7.2c-1-2.2-2.3-4.2-4-5.9c-1.7-1.7-3.6-3-5.9-4s-4.6-1.5-7.2-1.5h-0.2c-2.6,0-4.9,0.5-7.2,1.5s-4.2,2.3-5.9,4
	s-3,3.6-4,5.9s-1.5,4.6-1.5,7.2v0.5c0,0.1,0,0.2,0.1,0.2c0,1,0.1,2.1,0.4,3.3c0.1,0.7,0.5,1.7,1.1,3.1s1.4,2.8,2.2,4.4
	c0.9,1.6,1.8,3.2,2.8,4.9c1,1.7,2,3.3,2.9,4.7c0.9,1.5,1.7,2.7,2.4,3.8c0.7,1,1.2,1.7,1.5,2c0.4,0.4,0.9,0.8,1.4,1.3
	c0.5,0.5,1.1,0.9,1.6,1.2c0.5,0.4,1,0.6,1.4,0.8s0.7,0.3,0.8,0.3c0.2,0,0.4-0.1,0.8-0.3s0.8-0.5,1.3-0.8c0.5-0.3,1-0.7,1.6-1.2
	s1-0.9,1.5-1.4c0.3-0.3,0.8-1,1.5-2c0.7-1,1.5-2.3,2.4-3.8c0.9-1.5,1.9-3.1,2.9-4.7s1.9-3.3,2.8-4.9c0.9-1.6,1.6-3.1,2.2-4.4
	c0.6-1.3,1-2.3,1.1-3c0.1-0.6,0.2-1.1,0.2-1.6c0.1-0.5,0.1-1.1,0.2-1.6v-0.2c0-0.1,0-0.2,0-0.2S-559.7,744.3-559.7,744.1
	L-559.7,744.1L-559.7,744.1L-559.7,744.1z M-578.3,710.7c5.3,0,10.2,1,14.9,3c4.7,2,8.7,4.7,12.2,8.2c3.4,3.4,6.2,7.5,8.2,12.2
	c2,4.7,3,9.6,3,14.9c0,3.5-0.5,6.9-1.4,10.2s-2.2,6.3-3.9,9.1c-1.7,2.8-3.6,5.4-6,7.7c-2.3,2.3-4.9,4.3-7.7,6
	c-2.8,1.7-5.9,2.9-9.1,3.9s-6.7,1.4-10.2,1.4s-6.9-0.5-10.2-1.4s-6.3-2.2-9.1-3.9c-2.8-1.7-5.4-3.7-7.7-6c-2.3-2.3-4.3-4.9-6-7.7
	c-1.7-2.8-2.9-5.9-3.9-9.1s-1.4-6.7-1.4-10.2c0-3.5,0.5-6.9,1.4-10.2c0.9-3.3,2.2-6.3,3.9-9.1c1.7-2.8,3.6-5.4,6-7.7
	c2.3-2.3,4.9-4.3,7.7-6s5.9-2.9,9.1-3.9S-581.8,710.7-578.3,710.7L-578.3,710.7C-578.3,710.7-578.3,710.7-578.3,710.7z"/>
</svg>
