<?xml version="1.0" encoding="utf-8"?>
<!-- Generator: Adobe Illustrator 19.0.0, SVG Export Plug-In . SVG Version: 6.00 Build 0)  -->
<svg version="1.1" id="Слой_1" xmlns="http://www.w3.org/2000/svg" xmlns:xlink="http://www.w3.org/1999/xlink" x="0px" y="0px"
	 viewBox="0 0 36.3 47.1" style="enable-background:new 0 0 36.3 47.1;" xml:space="preserve">
<style type="text/css">
	.st0{fill:#FDD049;}
</style>
<g>
	<path class="st0" d="M18.1,0C8.1,0,0,8.1,0,18.1c0,9.5,15.1,25.7,16.8,27.6l1.4,1.5l1.4-1.5c1.7-1.8,16.8-18.1,16.8-27.6
		C36.3,8.1,28.1,0,18.1,0L18.1,0z M18.1,25.6c-4.1,0-7.5-3.4-7.5-7.5c0-4.1,3.4-7.5,7.5-7.5c4.1,0,7.5,3.4,7.5,7.5
		C25.6,22.3,22.3,25.6,18.1,25.6L18.1,25.6z M18.1,25.6"/>
</g>
</svg>
