<?xml version="1.0" encoding="iso-8859-1"?>
<!-- Generator: Adobe Illustrator 19.0.0, SVG Export Plug-In . SVG Version: 6.00 Build 0)  -->
<svg version="1.1" id="&#x421;&#x43B;&#x43E;&#x439;_1"
	 xmlns="http://www.w3.org/2000/svg" xmlns:xlink="http://www.w3.org/1999/xlink" x="0px" y="0px"
	 viewBox="-357.535 328.355 76.535 76.535" style="enable-background:new -357.535 328.355 76.535 76.535;" xml:space="preserve">
<path style="fill:#959595;" d="M-319.345,354.07c2.093,0,3.865,0.727,5.319,2.181c1.454,1.454,2.181,3.226,2.181,5.319
	c0,2.093-0.727,3.865-2.181,5.319c-1.454,1.454-3.226,2.181-5.319,2.181c-2.093,0-3.865-0.727-5.319-2.181
	c-1.454-1.454-2.181-3.226-2.181-5.319c0-2.093,0.727-3.865,2.181-5.319C-323.21,354.8-321.438,354.07-319.345,354.07
	C-319.345,354.07-319.345,354.07-319.345,354.07z M-300.669,361.724c0-2.552-0.483-4.948-1.454-7.194
	c-0.971-2.246-2.296-4.209-3.98-5.893c-1.684-1.686-3.647-3.023-5.893-4.018c-2.246-0.995-4.642-1.492-7.194-1.492h-0.153
	c-2.552,0-4.948,0.497-7.194,1.492c-2.246,0.995-4.209,2.334-5.893,4.018c-1.684,1.684-3.011,3.647-3.98,5.893
	c-0.969,2.246-1.454,4.642-1.454,7.194v0.536c0,0.103,0.026,0.179,0.077,0.23c0,1.021,0.127,2.117,0.383,3.291
	c0.103,0.715,0.459,1.734,1.071,3.061c0.612,1.327,1.351,2.782,2.219,4.363s1.799,3.226,2.793,4.937
	c0.995,1.71,1.952,3.291,2.87,4.745s1.734,2.705,2.449,3.75c0.715,1.045,1.225,1.722,1.531,2.028
	c0.409,0.409,0.88,0.842,1.416,1.301c0.536,0.459,1.06,0.868,1.569,1.225c0.509,0.356,0.969,0.636,1.378,0.842
	c0.409,0.206,0.689,0.306,0.842,0.306c0.153,0,0.421-0.1,0.804-0.306s0.83-0.471,1.339-0.804c0.509-0.332,1.033-0.727,1.569-1.186
	c0.536-0.459,1.033-0.918,1.492-1.378c0.306-0.306,0.816-0.983,1.531-2.028c0.715-1.045,1.531-2.308,2.449-3.789
	c0.918-1.478,1.875-3.061,2.87-4.745s1.925-3.329,2.793-4.934c0.868-1.607,1.595-3.061,2.181-4.363
	c0.586-1.301,0.957-2.308,1.11-3.023c0.103-0.562,0.177-1.11,0.23-1.646c0.053-0.536,0.103-1.083,0.153-1.646v-0.23
	c0-0.1,0.014-0.177,0.038-0.23s0.038-0.127,0.038-0.23v-0.077V361.724z M-319.267,328.355c5.254,0,10.217,1.007,14.886,3.023
	c4.669,2.016,8.725,4.745,12.169,8.189c3.444,3.444,6.175,7.5,8.189,12.169c2.014,4.669,3.023,9.632,3.023,14.886
	c0,3.521-0.459,6.912-1.378,10.179s-2.205,6.314-3.865,9.146c-1.657,2.832-3.647,5.41-5.97,7.73s-4.896,4.312-7.73,5.97
	c-2.832,1.657-5.881,2.947-9.146,3.865c-3.265,0.918-6.658,1.378-10.179,1.378c-3.521,0-6.914-0.459-10.179-1.378
	s-6.314-2.208-9.146-3.865c-2.832-1.66-5.408-3.65-7.73-5.97s-4.312-4.898-5.97-7.73c-1.657-2.832-2.947-5.881-3.867-9.146
	s-1.378-6.659-1.378-10.179s0.459-6.915,1.378-10.179c0.918-3.267,2.207-6.314,3.865-9.146c1.657-2.832,3.647-5.41,5.97-7.73
	c2.322-2.322,4.898-4.312,7.73-5.97s5.881-2.947,9.146-3.865c3.265-0.918,6.658-1.378,10.179-1.378l0,0
	C-319.269,328.355-319.267,328.355-319.267,328.355z"/>
</svg>
