<?xml version="1.0" encoding="utf-8"?>
<!-- Generator: Adobe Illustrator 16.0.0, SVG Export Plug-In . SVG Version: 6.00 Build 0)  -->
<!DOCTYPE svg PUBLIC "-//W3C//DTD SVG 1.1//EN" "http://www.w3.org/Graphics/SVG/1.1/DTD/svg11.dtd">
<svg version="1.1" id="Слой_1" xmlns="http://www.w3.org/2000/svg" xmlns:xlink="http://www.w3.org/1999/xlink" x="0px" y="0px"
	 width="33.292px" height="33.375px" viewBox="0 0 33.292 33.375" enable-background="new 0 0 33.292 33.375" xml:space="preserve">
<g>
	<path d="M16.646,32.732c-8.847,0-16.045-7.197-16.045-16.045c0-8.847,7.198-16.045,16.045-16.045
		c8.848,0,16.045,7.198,16.045,16.045C32.69,25.535,25.493,32.732,16.646,32.732z M16.646,1.467
		c-8.393,0-15.221,6.828-15.221,15.221c0,8.394,6.828,15.223,15.221,15.223s15.221-6.829,15.221-15.223
		C31.866,8.295,25.038,1.467,16.646,1.467z"/>
	<path fill="#808285" d="M16.646,0.768c8.793,0,15.92,7.129,15.92,15.92s-7.127,15.92-15.92,15.92s-15.92-7.129-15.92-15.92
		S7.853,0.768,16.646,0.768 M16.646,32.035c8.475,0,15.346-6.871,15.346-15.348c0-8.476-6.871-15.346-15.346-15.346
		C8.169,1.342,1.3,8.212,1.3,16.688C1.3,25.164,8.169,32.035,16.646,32.035 M16.646,0.518c-8.916,0-16.17,7.254-16.17,16.17
		s7.254,16.17,16.17,16.17s16.17-7.254,16.17-16.17S25.562,0.518,16.646,0.518L16.646,0.518z M16.646,31.785
		c-8.324,0-15.096-6.772-15.096-15.098c0-8.324,6.772-15.096,15.096-15.096c8.324,0,15.096,6.772,15.096,15.096
		C31.741,25.013,24.97,31.785,16.646,31.785L16.646,31.785z"/>
</g>
<path fill="#1D1D1B" d="M26.894,12.937H7.381c-0.939,0-1.702,0.762-1.702,1.702v3.752c0,0.939,0.763,1.702,1.702,1.702h19.513
	c0.939,0,1.702-0.763,1.702-1.702v-3.752C28.596,13.698,27.833,12.937,26.894,12.937z M27.731,15.724v0.306v0.854
	c0,0.021-0.01,0.039-0.011,0.06c0.001,0.019,0.011,0.036,0.011,0.055v1.071c0,0.629-0.514,1.141-1.148,1.141h-4.219h-3.817h-4.22
	c-0.002,0-0.003-0.001-0.005-0.001H7.693c-0.635,0-1.149-0.51-1.149-1.139v-1.072c0-0.02,0.01-0.036,0.011-0.055
	c-0.001-0.021-0.011-0.039-0.011-0.06V16.03v-0.306v-0.765c0-0.63,0.515-1.14,1.149-1.14h6.634h1.402h2.817h3.817h4.219
	c0.635,0,1.148,0.51,1.148,1.14V15.724z"/>
</svg>
