<?xml version="1.0" encoding="utf-8"?>
<!-- Generator: Adobe Illustrator 19.0.0, SVG Export Plug-In . SVG Version: 6.00 Build 0)  -->
<svg version="1.1" id="Слой_1" xmlns="http://www.w3.org/2000/svg" xmlns:xlink="http://www.w3.org/1999/xlink" x="0px" y="0px"
	 viewBox="0 0 29.6 20.8" style="enable-background:new 0 0 29.6 20.8;" xml:space="preserve">
<style type="text/css">
	.st0{fill:#959595;}
</style>
<path class="st0" d="M29.6,2.6C29.6,1.1,28.5,0,27,0H2.6C1.1,0,0,1.1,0,2.6v15.7c0,1.4,1.1,2.6,2.6,2.6H27c1.4,0,2.6-1.1,2.6-2.6
	V2.6z M2.8,4.4c0-0.6,0.6-1.2,1.2-1.2h13.6c0.6,0,1.2,0.6,1.2,1.2c0,0.6-0.6,1.2-1.2,1.2H4C3.4,5.6,2.8,5,2.8,4.4L2.8,4.4z
	 M18.2,18.5c-2.2,0-4.1-1.8-4.1-4.1c0-2.2,1.8-4,4.1-4c2.2,0,4.1,1.8,4.1,4.1C22.3,16.7,20.5,18.5,18.2,18.5L18.2,18.5z M27,14.5
	c0,2.2-1.8,4.1-4.1,4.1c-0.2,0-0.6,0-0.8-0.1c1-1,1.6-2.4,1.6-4c0-1.6-0.6-3-1.6-4c0.2-0.1,0.5-0.1,0.8-0.1
	C25.3,10.4,27,12.2,27,14.5L27,14.5z M27,14.5"/>
</svg>
