<?xml version="1.0" encoding="utf-8"?>
<!-- Generator: Adobe Illustrator 19.0.0, SVG Export Plug-In . SVG Version: 6.00 Build 0)  -->
<svg version="1.1" xmlns="http://www.w3.org/2000/svg" xmlns:xlink="http://www.w3.org/1999/xlink" x="0px" y="0px"
	 viewBox="0 0 42 42" style="enable-background:new 0 0 42 42;" xml:space="preserve">
<style type="text/css">
	.st0{enable-background:new    ;}
	.st1{fill-rule:evenodd;clip-rule:evenodd;fill:#CCCCCC;}
	.st2{fill:#FFFFFF;}
</style>
<g id="Эллипс_1_1_" class="st0">
	<g id="Эллипс_1">
		<g>
			<ellipse class="st1" cx="21" cy="20.4" rx="21" ry="20.9"/>
		</g>
	</g>
</g>
<g id="noun_x5F_105502_x5F_cc_xA0_Изображение_1_">
	<path class="st2" d="M16.9,32.2l-8.6-7.9c-1.2-1.1-1.2-2.9-0.2-4.1l0,0c1.1-1.2,2.9-1.2,4.1-0.2l8.6,7.9C22,29,22.1,30.8,21,32l0,0
		C19.9,33.2,18.1,33.2,16.9,32.2z"/>
	<path class="st2" d="M34.1,15L21.4,32c-0.9,1.3-2.8,1.5-4,0.6l0,0c-1.3-0.9-1.5-2.8-0.6-4l12.7-17c0.9-1.3,2.8-1.5,4-0.6l0,0
		C34.8,12,35,13.8,34.1,15z"/>
</g>
</svg>
