<?xml version="1.0" encoding="utf-8"?>
<!-- Generator: Adobe Illustrator 19.0.0, SVG Export Plug-In . SVG Version: 6.00 Build 0)  -->
<svg version="1.1" id="Слой_1" xmlns="http://www.w3.org/2000/svg" xmlns:xlink="http://www.w3.org/1999/xlink" x="0px" y="0px"
	 viewBox="0 0 12 12" style="enable-background:new 0 0 12 12;" xml:space="preserve">
<style type="text/css">
	.st0{clip-path:url(#SVGID_2_);fill:#959595;}
</style>
<g>
	<g>
		<defs>
			<rect id="SVGID_1_" width="12" height="12"/>
		</defs>
		<clipPath id="SVGID_2_">
			<use xlink:href="#SVGID_1_"  style="overflow:visible;"/>
		</clipPath>
		<path class="st0" d="M10.2,1.8c-2.3-2.3-6.1-2.3-8.4,0c-2.3,2.3-2.3,6.1,0,8.4s6.1,2.3,8.4,0C12.5,7.9,12.5,4.1,10.2,1.8L10.2,1.8
			z M9.1,6.3H5.9c-0.2,0-0.4-0.2-0.4-0.4v-4c0-0.2,0.2-0.4,0.4-0.4c0.2,0,0.4,0.2,0.4,0.4v3.6h2.8c0.2,0,0.4,0.2,0.4,0.4
			C9.5,6.2,9.4,6.3,9.1,6.3L9.1,6.3z M9.1,6.3"/>
	</g>
</g>
</svg>
