<?xml version="1.0" encoding="utf-8"?>
<!-- Generator: Adobe Illustrator 19.0.0, SVG Export Plug-In . SVG Version: 6.00 Build 0)  -->
<svg version="1.1" id="Слой_1" xmlns="http://www.w3.org/2000/svg" xmlns:xlink="http://www.w3.org/1999/xlink" x="0px" y="0px"
	 viewBox="-291 414.9 12 12" style="enable-background:new -291 414.9 12 12;" xml:space="preserve">
<style type="text/css">
	.st0{clip-path:url(#SVGID_2_);fill:#FDD049;}
</style>
<g>
	<g>
		<g>
			<defs>
				<rect id="SVGID_1_" x="-291" y="414.9" width="12" height="12"/>
			</defs>
			<clipPath id="SVGID_2_">
				<use xlink:href="#SVGID_1_"  style="overflow:visible;"/>
			</clipPath>
			<path class="st0" d="M-280.8,416.7c-2.3-2.3-6.1-2.3-8.4,0c-2.3,2.3-2.3,6.1,0,8.4c2.3,2.3,6.1,2.3,8.4,0
				C-278.5,422.8-278.5,419-280.8,416.7L-280.8,416.7z M-281.9,421.2h-3.2c-0.2,0-0.4-0.2-0.4-0.4v-4c0-0.2,0.2-0.4,0.4-0.4
				c0.2,0,0.4,0.2,0.4,0.4v3.6h2.8c0.2,0,0.4,0.2,0.4,0.4C-281.5,421.1-281.6,421.2-281.9,421.2L-281.9,421.2z"/>
		</g>
	</g>
</g>
</svg>
