<?xml version="1.0" encoding="utf-8"?>
<!-- Generator: Adobe Illustrator 16.0.0, SVG Export Plug-In . SVG Version: 6.00 Build 0)  -->
<!DOCTYPE svg PUBLIC "-//W3C//DTD SVG 1.1//EN" "http://www.w3.org/Graphics/SVG/1.1/DTD/svg11.dtd">
<svg version="1.1" id="Слой_1" xmlns="http://www.w3.org/2000/svg" xmlns:xlink="http://www.w3.org/1999/xlink" x="0px" y="0px"
	 width="33.292px" height="33.375px" viewBox="0 0 33.292 33.375" enable-background="new 0 0 33.292 33.375" xml:space="preserve">
<g>
	<path d="M16.646,32.732c-8.848,0-16.045-7.197-16.045-16.045c0-8.847,7.197-16.045,16.045-16.045
		c8.848,0,16.045,7.198,16.045,16.045C32.691,25.535,25.494,32.732,16.646,32.732z M16.646,1.467
		c-8.393,0-15.221,6.828-15.221,15.221c0,8.395,6.828,15.223,15.221,15.223c8.393,0,15.221-6.828,15.221-15.223
		C31.867,8.295,25.039,1.467,16.646,1.467z"/>
	<path fill="#808285" d="M16.646,0.768c8.793,0,15.92,7.129,15.92,15.92s-7.127,15.92-15.92,15.92c-8.793,0-15.92-7.129-15.92-15.92
		S7.853,0.768,16.646,0.768 M16.646,32.035c8.475,0,15.346-6.871,15.346-15.348c0-8.475-6.871-15.346-15.346-15.346
		C8.169,1.342,1.3,8.213,1.3,16.688C1.3,25.164,8.169,32.035,16.646,32.035 M16.646,0.518c-8.916,0-16.17,7.254-16.17,16.17
		s7.254,16.17,16.17,16.17c8.917,0,16.17-7.254,16.17-16.17S25.563,0.518,16.646,0.518L16.646,0.518z M16.646,31.785
		c-8.324,0-15.096-6.773-15.096-15.098c0-8.324,6.771-15.096,15.096-15.096c8.325,0,15.096,6.772,15.096,15.096
		C31.742,25.012,24.971,31.785,16.646,31.785L16.646,31.785z"/>
</g>
<path fill="#1D1D1B" d="M22.641,10.224v0.002l-2.756-2.749h0.01l-0.973-0.973h-0.461h-3.795h-2.496h-0.888
	c-0.888,0-1.608,0.707-1.608,1.578v18.094c0,0.871,0.721,1.578,1.608,1.578h0.888h2.496h3.795h1.768h1.781
	c0.889,0,1.609-0.707,1.609-1.578v-2.034v-1.429V11.395v-0.192L22.641,10.224z M21.689,10.84h-0.557h-0.271h-0.127h-0.545
	c-0.551,0-1-0.444-1-0.992V8.371L21.689,10.84z M22.641,22.713v3.004c0,0.576-0.471,1.045-1.051,1.045h-1.445h-0.439h-0.166h-6.186
	h-0.658h-0.284h-0.136h-0.57c-0.581,0-1.053-0.469-1.053-1.045v-6.039v-1.275v-2.566v-3.475v-3.84c0-0.578,0.472-1.045,1.053-1.045
	h0.57h0.136h0.284h0.659h4.906v2.807c0,0.828,0.684,1.501,1.529,1.501h0.844h2.008V22.713L22.641,22.713z"/>
</svg>
