<?xml version="1.0" encoding="utf-8"?>
<!-- Generator: Adobe Illustrator 16.0.0, SVG Export Plug-In . SVG Version: 6.00 Build 0)  -->
<!DOCTYPE svg PUBLIC "-//W3C//DTD SVG 1.1//EN" "http://www.w3.org/Graphics/SVG/1.1/DTD/svg11.dtd">
<svg version="1.1" id="Слой_1" xmlns="http://www.w3.org/2000/svg" xmlns:xlink="http://www.w3.org/1999/xlink" x="0px" y="0px"
	 width="33.292px" height="33.375px" viewBox="0 0 33.292 33.375" enable-background="new 0 0 33.292 33.375" xml:space="preserve">
<g>
	<path d="M15.142,22.705c0.619,0.617,1.622,0.617,2.239,0l9.3-9.3c0.619-0.619,0.619-1.621,0-2.24l0,0
		c-0.618-0.618-1.621-0.619-2.24,0l-9.299,9.3C14.523,21.082,14.523,22.086,15.142,22.705L15.142,22.705z"/>
	<path d="M17.338,22.701c-0.622,0.621-1.63,0.621-2.252,0l-6.157-6.158c-0.621-0.622-0.622-1.629,0-2.251l0,0
		c0.621-0.621,1.63-0.621,2.251,0l6.158,6.157C17.959,21.072,17.959,22.08,17.338,22.701L17.338,22.701z"/>
</g>
<g>
	<path d="M16.948,32.732c-8.848,0-16.045-7.197-16.045-16.044S8.101,0.643,16.948,0.643s16.045,7.198,16.045,16.045
		S25.796,32.732,16.948,32.732z M16.948,1.467c-8.393,0-15.221,6.828-15.221,15.221c0,8.394,6.828,15.222,15.221,15.222
		s15.221-6.828,15.221-15.222C32.169,8.295,25.341,1.467,16.948,1.467z"/>
	<path fill="#808285" d="M16.948,0.768c8.793,0,15.92,7.129,15.92,15.92c0,8.791-7.127,15.919-15.92,15.919
		s-15.92-7.129-15.92-15.919C1.028,7.897,8.155,0.768,16.948,0.768 M16.948,32.035c8.475,0,15.346-6.871,15.346-15.347
		c0-8.476-6.871-15.346-15.346-15.346c-8.477,0-15.346,6.87-15.346,15.346C1.603,25.164,8.472,32.035,16.948,32.035 M16.948,0.518
		c-8.916,0-16.17,7.254-16.17,16.17c0,8.916,7.254,16.169,16.17,16.169s16.17-7.254,16.17-16.169
		C33.118,7.772,25.864,0.518,16.948,0.518L16.948,0.518z M16.948,31.785c-8.324,0-15.096-6.772-15.096-15.097
		c0-8.324,6.771-15.096,15.096-15.096s15.096,6.772,15.096,15.096C32.044,25.013,25.272,31.785,16.948,31.785L16.948,31.785z"/>
</g>
</svg>
