<?xml version="1.0" encoding="utf-8"?>
<!-- Generator: Adobe Illustrator 19.0.0, SVG Export Plug-In . SVG Version: 6.00 Build 0)  -->
<svg version="1.1" id="Слой_1" xmlns="http://www.w3.org/2000/svg" xmlns:xlink="http://www.w3.org/1999/xlink" x="0px" y="0px"
	 viewBox="0 0 362 358.3" style="enable-background:new 0 0 362 358.3;" xml:space="preserve">
<style type="text/css">
	.st0{fill:#020202;}
</style>
<g>
	<path class="st0" d="M92.9,214.4c0,6.2-5,11.2-11.2,11.2H11.2c-6.2,0-11.2-5-11.2-11.2V144c0-6.2,5-11.2,11.2-11.2h70.4
		c6.2,0,11.2,5,11.2,11.2V214.4z M92.9,214.4"/>
	<path class="st0" d="M362,214.4c0,6.2-5,11.2-11.2,11.2h-70.4c-6.2,0-11.2-5-11.2-11.2V144c0-6.2,5-11.2,11.2-11.2h70.4
		c6.2,0,11.2,5,11.2,11.2V214.4z M362,214.4"/>
	<path class="st0" d="M216.2,0h-70.4c-6.2,0-11.2,5-11.2,11.2v70.4c0,6.2,5,11.2,11.2,11.2h70.4c6.2,0,11.2-5,11.2-11.2V11.2
		C227.4,5,222.4,0,216.2,0L216.2,0z M216.2,0"/>
	<path class="st0" d="M81.6,0H11.2C5,0,0,5,0,11.2v70.4c0,6.2,5,11.2,11.2,11.2h70.4c6.2,0,11.2-5,11.2-11.2V11.2
		C92.9,5,87.8,0,81.6,0L81.6,0z M81.6,0"/>
	<path class="st0" d="M350.8,0h-70.4c-6.2,0-11.2,5-11.2,11.2v70.4c0,6.2,5,11.2,11.2,11.2h70.4c6.2,0,11.2-5,11.2-11.2V11.2
		C362,5,357,0,350.8,0L350.8,0z M350.8,0"/>
	<path class="st0" d="M216.2,132.7h-70.4c-6.2,0-11.2,5-11.2,11.2v70.4c0,6.2,5,11.2,11.2,11.2h70.4c6.2,0,11.2-5,11.2-11.2V144
		C227.4,137.8,222.4,132.7,216.2,132.7L216.2,132.7z M216.2,132.7"/>
	<path class="st0" d="M216.2,265.5h-70.4c-6.2,0-11.2,5-11.2,11.2v70.4c0,6.2,5,11.2,11.2,11.2h70.4c6.2,0,11.2-5,11.2-11.2v-70.4
		C227.4,270.5,222.4,265.5,216.2,265.5L216.2,265.5z M216.2,265.5"/>
	<path class="st0" d="M92.9,347.1c0,6.2-5,11.2-11.2,11.2H11.2c-6.2,0-11.2-5-11.2-11.2v-70.4c0-6.2,5-11.2,11.2-11.2h70.4
		c6.2,0,11.2,5,11.2,11.2V347.1z M92.9,347.1"/>
	<path class="st0" d="M362,347.1c0,6.2-5,11.2-11.2,11.2h-70.4c-6.2,0-11.2-5-11.2-11.2v-70.4c0-6.2,5-11.2,11.2-11.2h70.4
		c6.2,0,11.2,5,11.2,11.2V347.1z M362,347.1"/>
</g>
</svg>
