<?xml version="1.0" encoding="iso-8859-1"?>
<!-- Generator: Adobe Illustrator 19.0.0, SVG Export Plug-In . SVG Version: 6.00 Build 0)  -->
<svg version="1.1" id="&#x421;&#x43B;&#x43E;&#x439;_1"
	 xmlns="http://www.w3.org/2000/svg" xmlns:xlink="http://www.w3.org/1999/xlink" x="0px" y="0px" viewBox="0 0 31.522 25.02"
	 style="enable-background:new 0 0 31.522 25.02;" xml:space="preserve">
<g>
	<g>
		<defs>
			<rect id="SVGID_1_" y="0.001" width="31.92" height="25.979"/>
		</defs>
		<clipPath id="SVGID_2_">
			<use xlink:href="#SVGID_1_"  style="overflow:visible;"/>
		</clipPath>
		<path style="clip-path:url(#SVGID_2_);fill:#F4BB30;" d="M26.887,13.513v9.906c0,0.883-0.715,1.602-1.598,1.602H6.246
			c-0.887,0-1.601-0.719-1.601-1.602v-9.906c0-0.551,0.285-1.066,0.75-1.355l9.523-5.949c0.52-0.324,1.176-0.324,1.695,0
			l9.519,5.949C26.605,12.446,26.887,12.962,26.887,13.513L26.887,13.513z M30.781,9.091L16.613,0.243
			c-0.516-0.324-1.175-0.324-1.695,0L0.754,9.091c-0.75,0.469-0.977,1.453-0.512,2.203c0.469,0.75,1.453,0.98,2.207,0.512
			l13.317-8.321l13.316,8.321c0.266,0.164,0.559,0.242,0.848,0.242c0.535,0,1.055-0.266,1.359-0.754
			C31.758,10.544,31.527,9.56,30.781,9.091L30.781,9.091z M30.781,9.091"/>
	</g>
</g>
</svg>
