<?xml version="1.0" encoding="iso-8859-1"?>
<!-- Generator: Adobe Illustrator 19.0.0, SVG Export Plug-In . SVG Version: 6.00 Build 0)  -->
<svg version="1.1" id="&#x421;&#x43B;&#x43E;&#x439;_1"
	 xmlns="http://www.w3.org/2000/svg" xmlns:xlink="http://www.w3.org/1999/xlink" x="0px" y="0px" viewBox="0 0 13.719 18.645"
	 style="enable-background:new 0 0 13.719 18.645;" xml:space="preserve">
<g>
	<path style="fill:#CCCCCC;" d="M12.508,8.195V5.648C12.512,2.531,9.977,0,6.863,0C3.746,0,1.215,2.531,1.215,5.648v2.551H0v10.445
		h13.719V8.195H12.508z M3.34,5.648c0-1.941,1.582-3.519,3.523-3.519c1.938,0,3.516,1.578,3.516,3.519v2.551H3.34V5.648z
		 M7.832,15.777H5.895l0.289-2.863c-0.36-0.223-0.598-0.621-0.598-1.078c0-0.703,0.57-1.273,1.277-1.273
		c0.704,0,1.274,0.57,1.274,1.273c0,0.457-0.238,0.855-0.601,1.078L7.832,15.777z M7.832,15.777"/>
</g>
</svg>
