<?xml version="1.0" encoding="utf-8"?>
<!-- Generator: Adobe Illustrator 19.0.0, SVG Export Plug-In . SVG Version: 6.00 Build 0)  -->
<svg version="1.1" id="Слой_1" xmlns="http://www.w3.org/2000/svg" xmlns:xlink="http://www.w3.org/1999/xlink" x="0px" y="0px"
	 viewBox="0 0 1355.3 235.9" style="enable-background:new 0 0 1355.3 235.9;" xml:space="preserve">
<g>
	<path d="M381.9,93c0,2.4-0.8,4.5-2.4,6.5c-1.6,2-3.6,3-6,3c-2.2,0-4.1-0.6-5.9-1.8c-2-1.4-3-3.1-2.9-5.2c0-2.5,0-3.5,0-3.1
		c0-1.1-0.1-2.1-0.3-3.1c-4.3-3.3-9.3-4.9-14.8-4.9c-10.8,0-20,4.7-27.8,14c-7.3,8.8-11,18.8-11,29.9c0,7.8,2.3,14.5,6.8,20
		c4.9,5.8,11.2,8.7,18.8,8.7c3.7,0,7.7-0.8,11.8-2.3c4.2-1.6,7.6-3.6,10.2-6.2c5.6-6.9,10.4-10.3,14.4-10.3c1.7,0,3.3,0.8,4.8,2.3
		c1.5,1.5,2.2,3.2,2.2,4.9c0,2.1-1.7,5.2-5,9.3c-10.3,12.6-22,18.9-35.1,18.9c-12.2,0-22.3-5.3-30.2-15.8
		c-7.2-9.5-10.8-20.6-10.8-33.3c0-14.3,4.2-27.3,12.7-38.9c9.3-12.8,20.9-19.2,34.8-19.2c6.6,0,12.5,1.5,17.7,4.6
		c3.8,2.3,8.3,6.4,13.6,12.2C380.5,86.5,381.9,89.7,381.9,93z"/>
	<path d="M499.5,165.8c0,2.5-0.9,4.6-2.7,6.1l-0.4,1.6c-2.4,3.6-3.8,7.3-4.1,11c-0.2,2.4-1.2,4.2-3.1,5.5c-1.9,1.3-4.1,2-6.7,2
		c-4.7,0-7.3-1.8-7.6-5.3c-0.2-1.6,0.4-3.4,1.8-5.3c2-3,3.2-4.9,3.5-5.7c0.2-0.5,0.4-1.3,0.5-2.2c-2.8-0.2-4.9-0.3-6.3-0.3
		c-35.4-0.6-57.5,0-66.4,2c0.6,1.1,1.4,2.2,2.2,3.4c3,4.4,4.5,7.3,4.6,8.6c0.2,3.7-2,5.6-6.5,5.6c-5.9,0-9.3-2.6-10.3-7.9
		c-0.8-3.6-2.1-7.3-3.9-10.9l-2.6-6.7h0.1c-0.2-0.5-0.3-0.9-0.4-1.4c-0.3-2.8-0.1-5.2,0.5-7.3c0.6-2,3.7-2.6,9.1-1.6
		c1.9,0,4.7,0.3,8.4,1c0.6-1.8,1.7-4,3.3-6.5c3.3-5.4,7.7-17.3,13.3-35.8c6.4-19.1,10-31.1,10.8-36.1c0.5-4.2,1.3-7.3,2.3-9.3
		c1.4-1.9,3.7-3.2,7.1-3.8c1-0.2,2.1-0.3,3.3-0.3c3.5,0,5.8,2,6.8,6c0.8,2.6,1.3,5,1.5,7.2c0.4,3.6,1.5,9,3.4,16.2
		c4.3,12.4,9.1,26.4,14.4,42.1c1.1,3.2,3.2,9.7,6.3,19.5c2.9-0.6,5.7-1.3,8.3-1.9c3.3-0.7,5.9-0.6,8,0.5
		C500.1,157,500.6,160.3,499.5,165.8z M464.4,156.3l-2-8.8l-14.3-55.7l-18.5,59.7c-0.7,2.6-1.5,5.3-2.2,7.9
		c16.2,0.3,28.8,0.2,37.7-0.1C464.9,158.4,464.7,157.4,464.4,156.3z"/>
	<path d="M592.6,117.5c0,5.4-3,8-9.1,8c-1.5,0-3.6-0.2-6.5-0.5c-2.9-0.3-5-0.5-6.5-0.5c-4.5,0-17.5,1.1-38.8,3.3
		c-0.7,9.8-1.1,17.3-1.1,22.6c0,3,0.1,5.8,0.3,8.3l22.5-1.1c8.1-0.4,15.4-1.5,22-3.4c1.6-0.5,2.9-0.7,3.9-0.7c2.7,0,5.2,1.2,7.5,3.5
		c2.3,2.3,3.4,4.8,3.4,7.6c0,5.1-2.8,7.6-8.3,7.6c-1.6,0-4.1-0.2-7.4-0.5c-3.3-0.4-5.8-0.5-7.4-0.5c-8.4,0-21.9,1-40.6,3
		c-2,1.5-4,2.2-6.1,2.2c-5.1,0-7.6-2.5-7.6-7.4c0-2.5,0.5-6.4,1.6-11.6c1-5.2,1.7-9,1.8-11.2c1.8-19.2,2.7-35.9,2.7-49.9
		c0-4.5-0.2-7.6-0.5-9.1c-0.6-2.6-1-4.7-1-6.1c0-3.3,1.2-6.1,3.7-8.6c2.4-2.4,5.3-3.7,8.6-3.7c1.4,0,2.5,0.3,3.5,1
		c4.6-0.2,11.1-0.5,19.5-1.1c3.4-0.2,6.9-0.7,10.8-1.6c5.5-1.3,8.8-2,9.9-2.2c0.7-0.1,1.5-0.1,2.4-0.1c2.8,0,5.3,1.1,7.5,3.4
		c2.2,2.3,3.3,4.8,3.3,7.6c0,4.9-2.7,7.3-8.2,7.3c-1.4,0-3.4-0.1-6.1-0.4c-2.7-0.3-4.7-0.4-6.1-0.4c-3.1,0-13.4,0.9-31,2.7
		c-1.1,7.3-1.9,16-2.5,25.9l22-1c7.4-0.4,14.7-1.5,21.6-3.5c1.9-0.5,3.4-0.8,4.4-0.8c2.9,0,5.6,1.3,8,3.9
		C591.4,111.8,592.6,114.6,592.6,117.5z"/>
	<path d="M677.9,173.3c-2.9,0-5.9-2.7-9.1-8.2c-0.5-2.2-1-4.7-1.8-7.6l-2-9.1l-14.7-59.1l-25.2,63.3c-1.1,4-2.3,8-3.5,12
		c-2.1,4-5.5,6-10.2,6c-2.3,0-4.1-0.8-5.5-2.3c-1.4-1.5-2.1-3.4-2.1-5.6c0-2.4,1.3-5.7,3.9-9.9c3.4-5.4,9.1-18,17.3-37.7
		c8.3-20.2,12.9-32.9,13.6-38c0.5-4.3,1.4-7.4,2.4-9.5c1.4-1.9,3.8-3.2,7.2-3.8c1-0.2,2.1-0.3,3.3-0.3c3.6,0,6,2,7.1,6.1
		c0.8,2.7,1.3,5.2,1.5,7.3c0.4,3.7,1.5,9.3,3.4,16.6c4.4,14.2,9.3,29.2,14.8,45.2c1.2,3.5,3.6,11.2,7.2,22.9
		C685.7,167.7,683.2,171.6,677.9,173.3z"/>
	<path d="M777.7,175.5c-2.9,0-5.1-2-6.5-6c-0.2-0.7-0.9-4-2.2-9.8l-2-9.1l-42.9,3.8c-1.1,4-2.3,8-3.5,12c-2.1,4-5.5,6-10.2,6
		c-2.3,0-4.1-0.8-5.5-2.2c-1.4-1.5-2.1-3.4-2.1-5.6c0-2.4,1.3-5.7,3.9-9.9c3.4-5.5,9.2-18.1,17.3-37.7c8.3-20.3,12.9-33,13.6-38.1
		c0.7-5.1,1.9-8.7,3.4-10.9c2-2.9,5.3-4.4,9.9-4.4c3.5,0,5.9,2,7.1,6.1c0.8,2.9,1.3,5.4,1.5,7.3c0.4,3.6,1.5,9.2,3.4,16.6
		c3.9,15,8.7,30.8,14.4,47.4c1.4,3.8,3,7.8,4.9,12c2.5,3.9,3.8,7.3,3.8,10.3c0,3-0.6,5.7-1.9,8C782.5,174,780.4,175.5,777.7,175.5z
		 M762.9,135.8c-5.1-18.1-9.7-32.7-13.7-44c-5.3,11.6-11.8,27.1-19.5,46.4L762.9,135.8z"/>
	<path d="M882.3,150.7c0.4,5.5,0.5,9.6,0.5,12.2c0,3.1-1.1,5.8-3.2,8.2c-2.1,2.4-4.7,3.6-7.8,3.6c-4.5,0-6.8-2.4-6.8-7.3
		c0-2.7,0.2-6.6,0.7-11.6l0.8-10.6c0.3-3.3,1.1-19.6,2.4-48.9c-16.8,24.6-33.3,46.4-49.7,65.3c0,3.1-1.1,5.8-3.3,8.2
		c-2.2,2.4-4.9,3.5-8,3.5c-2.2,0-3.9-0.7-5.2-2.2c-1.3-1.4-2-3.3-2-5.4c0-1.1,0.4-3.3,1.2-6.7c0.8-3.4,1.4-12.3,1.6-26.7
		c0.2-14.1,0.3-26.5,0.3-37.4c0-4.8-0.2-8-0.5-9.7c-0.5-2.4-0.8-4.2-0.8-5.6c0-3.2,1.2-6.1,3.5-8.7c2.3-2.6,5-3.9,8.1-3.9
		c4.8,0,7.2,2.5,7.2,7.5c0,1-0.2,2.5-0.5,4.4c-1.1,5.7-2.6,26.7-4.5,62.9c17.1-18.5,34.7-41,52.9-67.5c1.7-5.1,4.1-7.6,7.2-7.6
		c0.7,0,1.5,0.1,2.3,0.4c4.4,0,6.5,2.8,6.5,8.4c0,1.2-0.1,2.4-0.3,3.5c-2.4,15.2-3.5,31.1-3.5,47.6
		C881.5,134.5,881.8,142.5,882.3,150.7z M825.9,54.5c0-2.2,0.9-3.9,2.7-5c1.8-1.2,3.7-1.5,5.9-1.1c3.4,0.7,5.6,1,6.4,1
		c1.4,0,4.6-1,9.8-3.1c4.1-1.6,6.9-1.9,8.4-0.8c1.4,1.1,2.7,2.8,3.6,5.2c1,2.4,1.4,4.5,1.4,6.5c0,4.9-2.4,7.1-7.3,6.5
		c-6-0.6-9.3-1-10.1-1c-3.2,0-6.6,0.7-10.3,2c-2.1,0.7-4,0.5-5.9-0.8C827.4,61.8,825.9,58.6,825.9,54.5z"/>
	<path d="M1052.5,165.8c0,2.5-0.9,4.6-2.7,6.1l-0.4,1.6c-2.5,3.6-3.8,7.3-4.1,11c-0.2,2.4-1.2,4.2-3.1,5.5c-1.9,1.3-4.1,2-6.7,2
		c-4.7,0-7.3-1.8-7.6-5.3c-0.2-1.6,0.4-3.4,1.8-5.3c2-3,3.2-4.9,3.5-5.7c0.2-0.5,0.4-1.3,0.5-2.2c-2.8-0.2-4.9-0.3-6.3-0.3
		c-35.4-0.6-57.5,0-66.4,2c0.6,1.1,1.4,2.2,2.2,3.4c3,4.4,4.5,7.3,4.6,8.6c0.2,3.7-2,5.6-6.5,5.6c-5.9,0-9.3-2.6-10.3-7.9
		c-0.8-3.6-2.1-7.3-3.9-10.9l-2.6-6.7h0.1c-0.2-0.5-0.3-0.9-0.4-1.4c-0.3-2.8-0.1-5.2,0.5-7.3c0.6-2,3.7-2.6,9.1-1.6
		c1.9,0,4.7,0.3,8.4,1c0.6-1.8,1.7-4,3.3-6.5c3.3-5.4,7.7-17.3,13.3-35.8c6.4-19.1,10-31.1,10.8-36.1c0.5-4.2,1.3-7.3,2.3-9.3
		c1.4-1.9,3.7-3.2,7.1-3.8c1-0.2,2.1-0.3,3.3-0.3c3.5,0,5.8,2,6.8,6c0.8,2.6,1.3,5,1.5,7.2c0.4,3.6,1.5,9,3.4,16.2
		c4.3,12.4,9.1,26.4,14.4,42.1c1.1,3.2,3.2,9.7,6.3,19.5c2.9-0.6,5.7-1.3,8.3-1.9c3.3-0.7,5.9-0.6,8,0.5
		C1053,157,1053.5,160.3,1052.5,165.8z M1017.3,156.3l-2-8.8L1001,91.8l-18.5,59.7c-0.7,2.6-1.5,5.3-2.2,7.9
		c16.2,0.3,28.8,0.2,37.7-0.1C1017.8,158.4,1017.6,157.4,1017.3,156.3z"/>
	<path d="M1145.5,117.5c0,5.4-3,8-9.1,8c-1.5,0-3.6-0.2-6.5-0.5c-2.9-0.3-5-0.5-6.5-0.5c-4.5,0-17.5,1.1-38.8,3.3
		c-0.7,9.8-1.1,17.3-1.1,22.6c0,3,0.1,5.8,0.3,8.3l22.5-1.1c8.1-0.4,15.4-1.5,22-3.4c1.6-0.5,2.9-0.7,3.9-0.7c2.7,0,5.2,1.2,7.5,3.5
		c2.3,2.3,3.4,4.8,3.4,7.6c0,5.1-2.8,7.6-8.3,7.6c-1.6,0-4.1-0.2-7.4-0.5c-3.3-0.4-5.8-0.5-7.4-0.5c-8.3,0-21.9,1-40.6,3
		c-2,1.5-4,2.2-6.1,2.2c-5.1,0-7.6-2.5-7.6-7.4c0-2.5,0.5-6.4,1.6-11.6c1-5.2,1.7-9,1.8-11.2c1.8-19.2,2.7-35.9,2.7-49.9
		c0-4.5-0.2-7.6-0.5-9.1c-0.6-2.6-1-4.7-1-6.1c0-3.3,1.2-6.1,3.7-8.6c2.4-2.4,5.3-3.7,8.6-3.7c1.4,0,2.5,0.3,3.5,1
		c4.6-0.2,11.1-0.5,19.5-1.1c3.4-0.2,6.9-0.7,10.8-1.6c5.5-1.3,8.8-2,9.9-2.2c0.7-0.1,1.5-0.1,2.5-0.1c2.8,0,5.3,1.1,7.5,3.4
		c2.2,2.3,3.3,4.8,3.3,7.6c0,4.9-2.7,7.3-8.2,7.3c-1.4,0-3.4-0.1-6.1-0.4c-2.7-0.3-4.7-0.4-6.1-0.4c-3.1,0-13.4,0.9-31,2.7
		c-1.1,7.3-1.9,16-2.4,25.9l22-1c7.4-0.4,14.7-1.5,21.6-3.5c1.9-0.5,3.4-0.8,4.4-0.8c2.9,0,5.6,1.3,8,3.9
		C1144.3,111.8,1145.5,114.6,1145.5,117.5z"/>
	<path d="M1230.9,173.3c-2.9,0-5.9-2.7-9.1-8.2c-0.5-2.2-1-4.7-1.8-7.6l-2-9.1l-14.7-59.1l-25.2,63.3c-1.1,4-2.3,8-3.5,12
		c-2.1,4-5.5,6-10.2,6c-2.3,0-4.1-0.8-5.5-2.3c-1.4-1.5-2.1-3.4-2.1-5.6c0-2.4,1.3-5.7,3.9-9.9c3.4-5.4,9.1-18,17.3-37.7
		c8.3-20.2,12.9-32.9,13.6-38c0.5-4.3,1.4-7.4,2.5-9.5c1.4-1.9,3.8-3.2,7.2-3.8c1-0.2,2.1-0.3,3.3-0.3c3.6,0,6,2,7.1,6.1
		c0.8,2.7,1.3,5.2,1.5,7.3c0.4,3.7,1.5,9.3,3.4,16.6c4.4,14.2,9.3,29.2,14.8,45.2c1.2,3.5,3.6,11.2,7.2,22.9
		C1238.7,167.7,1236.1,171.6,1230.9,173.3z"/>
	<path d="M1355.3,113.3c0,16-5.1,30-15.2,42.1c-10.8,12.6-24,18.9-39.7,18.9c-12.9,0-23.5-4.9-31.8-14.7
		c-7.9-9.3-11.8-20.6-11.8-33.6c0-16.1,5-30.1,15.1-42.2c10.7-12.7,24-19.1,39.7-19.1c13,0,23.6,4.9,32,14.8
		C1351.3,88.9,1355.3,100.1,1355.3,113.3z M1341.5,111.6c0-8.2-2.5-15-7.5-20.4c-5-5.4-11.5-8.2-19.6-8.2
		c-11.8,0-22.2,4.6-31.2,13.9c-9,9.3-13.5,19.8-13.5,31.6c0,8.2,2.5,15,7.6,20.4c5,5.4,11.6,8.2,19.8,8.2c11.9,0,22.3-4.6,31.2-13.8
		C1337.1,134.1,1341.5,123.5,1341.5,111.6z"/>
</g>
<g>
	<g>
		<path d="M199.3,66.4c-2.4,1-6.1,4.5-3.7,10.4c9.5,23.7,14.1,39.1,7.6,65.5c-12.3,49.1-63.5,83.2-114.1,75.9
			c-50.4-8.2-86.8-70-68.8-130.4C39.2,27.4,92.4,6.3,137.7,22c12.7,4,18.7,8.7,29.4,15.7c3.6,2.3,12.1,1.4,8.6-7.6
			c-1.3-3.2-16.8-16.7-33.6-23c-27-10.1-53.9-9.8-78.7,3C38.9,22.7,16.6,47.9,5.7,82.6c-22,71.1,22.7,143.5,80.1,152.1
			c29,4.6,58.3-5.2,82.1-21c23.8-16.2,42.3-38.3,49.2-67.6c7.7-32.2,4-46.4-6.6-74.4C209.1,68.2,204.3,64.3,199.3,66.4z"/>
	</g>
</g>
<path d="M94.4,142c0,0-11.5-11-18.7-22.3c-7.3-11.4-8.8-15.9-12.9-16.2c-3.4-0.2-6,1.5-6.2,4.6c-0.2,3.2,4.1,14.5,11.1,26.3
	c6.8,11.6,18.8,29.9,20.3,33c1.5,3,5.3,4.4,7.8,2.6c1.9-1.4,54.2-64.5,75.7-88.8c23.8-27,45.9-49.3,46.4-54.6c0.5-5.2-0.5-7-3.7-7.7
	c-3.2-0.7-5.9,2.3-31.7,31C156.7,78.8,94.4,142,94.4,142"/>
</svg>
