<?xml version="1.0" encoding="utf-8"?>
<!-- Generator: Adobe Illustrator 19.0.0, SVG Export Plug-In . SVG Version: 6.00 Build 0)  -->
<svg version="1.1" id="Shape_115_1_" xmlns="http://www.w3.org/2000/svg" xmlns:xlink="http://www.w3.org/1999/xlink" x="0px"
	 y="0px" viewBox="0 0 39 26" style="enable-background:new 0 0 39 26;" xml:space="preserve">
<style type="text/css">
	.st0{fill-rule:evenodd;clip-rule:evenodd;fill:#FDD049;}
</style>
<g id="Shape_115">
	<g>
		<path class="st0" d="M38.4,0.5C38.1,0.2,37.6,0,37.2,0H1.8C1.4,0,0.9,0.2,0.6,0.5l18.9,14.3L38.4,0.5z M0.5,0.5
			C0.2,0.8,0,1.3,0,1.8v22.5c0,0.5,0.2,0.9,0.5,1.2l11.9-13.8L0.5,0.5z M19.5,18.3l-5-4.7l-14,11.8C0.9,25.8,1.3,26,1.8,26h35.3
			c0.5,0,0.9-0.2,1.3-0.5l-14-11.8L19.5,18.3z M38.4,0.5L26.6,11.7l11.9,13.8c0.3-0.3,0.5-0.7,0.5-1.2V1.8C39,1.3,38.8,0.8,38.4,0.5
			z"/>
	</g>
</g>
</svg>
