<?xml version="1.0" encoding="utf-8"?>
<!-- Generator: Adobe Illustrator 19.0.0, SVG Export Plug-In . SVG Version: 6.00 Build 0)  -->
<svg version="1.1" id="Слой_1" xmlns="http://www.w3.org/2000/svg" xmlns:xlink="http://www.w3.org/1999/xlink" x="0px" y="0px"
	 viewBox="0 0 23.8 16.5" style="enable-background:new 0 0 23.8 16.5;" xml:space="preserve">
<style type="text/css">
	.st0{fill:#959595;}
</style>
<g>
	<path class="st0" d="M23.3,3.3c-0.2,0-0.3,0.1-0.4,0.1l-10.5,7.5c-0.2,0.2-0.4,0.2-0.6,0.2c-0.2,0-0.4-0.1-0.6-0.2L1,3.6
		C0.9,3.6,0.7,3.5,0.5,3.5C0.5,3.5,0,3.5,0,4.1v11.1c0,0.7,0.6,1.3,1.3,1.3h21.2c0.7,0,1.3-0.6,1.3-1.3V3.9
		C23.8,3.3,23.4,3.3,23.3,3.3L23.3,3.3z M23.3,3.3"/>
	<path class="st0" d="M0.8,1l10.3,7.2c0.1,0.1,0.3,0.3,0.7,0.3c0.4,0,0.6-0.2,0.7-0.3l10.4-7.3l0,0c0.1-0.1,0.4-0.3,0.2-0.6
		C23.1,0.1,23,0,22.8,0H1.1C0.8,0,0.7,0.1,0.6,0.3C0.5,0.4,0.5,0.7,0.8,1L0.8,1z M0.8,1"/>
</g>
</svg>
