<?xml version="1.0" encoding="utf-8"?>
<!-- Generator: Adobe Illustrator 16.0.0, SVG Export Plug-In . SVG Version: 6.00 Build 0)  -->
<!DOCTYPE svg PUBLIC "-//W3C//DTD SVG 1.1//EN" "http://www.w3.org/Graphics/SVG/1.1/DTD/svg11.dtd">
<svg version="1.1" id="Слой_1" xmlns="http://www.w3.org/2000/svg" xmlns:xlink="http://www.w3.org/1999/xlink" x="0px" y="0px"
	 width="33.292px" height="33.375px" viewBox="0 0 33.292 33.375" enable-background="new 0 0 33.292 33.375" xml:space="preserve">
<g>
	<path d="M16.646,32.732c-8.848,0-16.045-7.197-16.045-16.044S7.798,0.643,16.646,0.643S32.69,7.841,32.69,16.688
		S25.493,32.732,16.646,32.732z M16.646,1.467c-8.393,0-15.221,6.828-15.221,15.221c0,8.394,6.828,15.222,15.221,15.222
		s15.221-6.828,15.221-15.222C31.866,8.295,25.038,1.467,16.646,1.467z"/>
	<path fill="#808285" d="M16.646,0.768c8.793,0,15.92,7.129,15.92,15.92c0,8.791-7.127,15.919-15.92,15.919
		s-15.92-7.129-15.92-15.919C0.726,7.897,7.853,0.768,16.646,0.768 M16.646,32.035c8.475,0,15.346-6.871,15.346-15.347
		c0-8.476-6.871-15.346-15.346-15.346C8.169,1.342,1.3,8.212,1.3,16.688C1.3,25.164,8.169,32.035,16.646,32.035 M16.646,0.518
		c-8.916,0-16.17,7.254-16.17,16.17c0,8.916,7.254,16.169,16.17,16.169s16.17-7.254,16.17-16.169
		C32.815,7.772,25.562,0.518,16.646,0.518L16.646,0.518z M16.646,31.785c-8.324,0-15.096-6.772-15.096-15.097
		c0-8.324,6.771-15.096,15.096-15.096s15.096,6.772,15.096,15.096C31.741,25.013,24.97,31.785,16.646,31.785L16.646,31.785z"/>
</g>
<g>
	<g>
		<defs>
			<rect id="SVGID_1_" x="8.439" y="6.938" width="16.413" height="19.5"/>
		</defs>
		<clipPath id="SVGID_2_">
			<use xlink:href="#SVGID_1_"  overflow="visible"/>
		</clipPath>
		<path clip-path="url(#SVGID_2_)" fill="#1D1D1B" d="M24.847,7.278c-0.045-0.189-0.192-0.347-0.444-0.34
			c-3.101,0.076-5.246,0.079-8.349,0.079c-0.034,0-0.066,0.005-0.098,0.011c-0.031-0.006-0.064-0.011-0.1-0.011
			c-3.101,0-3.816-0.003-6.916-0.079C8.688,6.931,8.541,7.09,8.495,7.278C8.481,7.322,8.471,7.367,8.463,7.415
			C8.39,8.016,8.484,8.595,8.725,9.145c0.027,0.213,0.179,0.41,0.454,0.416C9.27,9.563,9.359,9.565,9.447,9.567
			c0.166,1.47,0.881,2.564,1.971,3.593c1.139,1.075,1.921,1.935,2.943,3.11c-2.063,1.394-3.729,4.855-4.172,7.501
			c-0.257,0.008-0.515,0.012-0.772,0.02c-0.044,0-0.085,0.01-0.123,0.02c-0.3-0.018-0.614,0.217-0.494,0.582
			c0.144,0.443,0.24,0.895,0.316,1.354c0,0.004,0.003,0.006,0.004,0.01c0.022,0.219,0.174,0.42,0.457,0.42
			c2.254,0,4.507,0.008,6.757,0.16c0.012,0,0.021-0.01,0.031-0.02c0.051,0.014,0.104,0.023,0.167,0.02
			c2.249-0.152,4.979-0.16,7.234-0.16c0.281,0,0.433-0.201,0.455-0.42c0.002-0.004,0.003-0.006,0.005-0.01
			c0.077-0.459,0.174-0.91,0.317-1.354c0.119-0.365-0.196-0.6-0.496-0.582c-0.037-0.01-0.078-0.02-0.123-0.02
			c-0.258-0.008-0.515-0.012-0.772-0.02c-0.442-2.646-2.109-6.107-4.171-7.501c1.022-1.176,1.771-2.002,2.942-3.11
			c1.089-1.031,1.805-2.123,1.971-3.593c0.089-0.002,0.177-0.003,0.269-0.006c0.275-0.006,0.427-0.203,0.455-0.416
			c0.24-0.55,0.334-1.129,0.26-1.73C24.873,7.367,24.861,7.322,24.847,7.278L24.847,7.278z M23.459,24.732
			c-0.039,0.162-0.071,0.326-0.103,0.488c-2.118,0.004-4.711,0.02-6.824,0.16c-0.059,0.004-0.11,0.018-0.157,0.037
			c-0.012-0.021-0.025-0.037-0.041-0.037c-2.113-0.141-4.229-0.156-6.348-0.16c-0.03-0.162-0.063-0.326-0.104-0.488
			c2.151-0.059,4.301-0.057,6.451,0.012c0.014,0,0.023-0.01,0.033-0.023c0.05,0.016,0.104,0.025,0.165,0.023
			C18.682,24.676,21.309,24.674,23.459,24.732L23.459,24.732z M17.921,16.078c-0.132,0.173-0.111,0.343-0.018,0.471
			c0.028,0.098,0.087,0.188,0.188,0.261c1.791,1.287,3.628,4.587,4.102,6.939c-1.728-0.027-3.933-0.014-5.66,0.043
			c-0.06,0-0.111,0.014-0.159,0.031c-0.013-0.018-0.025-0.031-0.039-0.031c-1.729-0.057-3.456-0.07-5.184-0.043
			c0.473-2.352,2.311-5.652,4.102-6.939c0.099-0.072,0.158-0.163,0.188-0.261c0.094-0.128,0.109-0.293-0.016-0.471
			c-1.653-2.34-4.606-3.405-5.022-6.487c2.076,0.049,2.943,0.064,5.536,0.129c0.006,0.002,0.011,0,0.019,0
			c0.007,0,0.013,0.002,0.02,0c2.591-0.064,4.89-0.08,6.966-0.129C22.524,12.672,19.642,13.808,17.921,16.078L17.921,16.078z
			 M23.812,8.615c-2.93,0.066-4.906,0.078-7.836,0.151c-0.007,0.001-0.013,0.002-0.02,0.003c-0.008-0.001-0.013-0.002-0.019-0.003
			c-2.93-0.073-3.477-0.085-6.406-0.151C9.444,8.382,9.401,8.144,9.395,7.9c2.948,0.065,3.513,0.07,6.463,0.07
			c0.034,0,0.068-0.003,0.1-0.009c0.031,0.006,0.063,0.009,0.099,0.009c2.949,0,4.944-0.005,7.894-0.07
			C23.941,8.144,23.898,8.382,23.812,8.615L23.812,8.615z M23.812,8.615"/>
	</g>
</g>
</svg>
