<?xml version="1.0" encoding="utf-8"?>
<!-- Generator: Adobe Illustrator 16.0.0, SVG Export Plug-In . SVG Version: 6.00 Build 0)  -->
<!DOCTYPE svg PUBLIC "-//W3C//DTD SVG 1.1//EN" "http://www.w3.org/Graphics/SVG/1.1/DTD/svg11.dtd">
<svg version="1.1" id="Слой_1" xmlns="http://www.w3.org/2000/svg" xmlns:xlink="http://www.w3.org/1999/xlink" x="0px" y="0px"
	 width="33.292px" height="33.375px" viewBox="0 0 33.292 33.375" enable-background="new 0 0 33.292 33.375" xml:space="preserve">
<g>
	<path d="M16.646,32.732c-8.848,0-16.045-7.198-16.045-16.045S7.798,0.642,16.646,0.642c8.848,0,16.045,7.198,16.045,16.045
		S25.494,32.732,16.646,32.732z M16.646,1.466c-8.393,0-15.221,6.828-15.221,15.221c0,8.394,6.828,15.223,15.221,15.223
		c8.393,0,15.221-6.829,15.221-15.223C31.867,8.294,25.039,1.466,16.646,1.466z"/>
	<path fill="#808285" d="M16.646,0.767c8.793,0,15.92,7.129,15.92,15.92c0,8.792-7.127,15.92-15.92,15.92
		c-8.793,0-15.92-7.129-15.92-15.92C0.726,7.896,7.853,0.767,16.646,0.767 M16.646,32.035c8.475,0,15.346-6.871,15.346-15.348
		c0-8.476-6.871-15.346-15.346-15.346C8.169,1.341,1.3,8.211,1.3,16.687C1.3,25.164,8.169,32.035,16.646,32.035 M16.646,0.517
		c-8.916,0-16.17,7.254-16.17,16.17c0,8.917,7.254,16.17,16.17,16.17c8.917,0,16.17-7.254,16.17-16.17
		C32.816,7.771,25.563,0.517,16.646,0.517L16.646,0.517z M16.646,31.785c-8.324,0-15.096-6.773-15.096-15.098
		c0-8.324,6.771-15.096,15.096-15.096c8.325,0,15.096,6.772,15.096,15.096C31.742,25.012,24.971,31.785,16.646,31.785L16.646,31.785
		z"/>
</g>
<path fill="#1D1D1B" d="M18.086,16.514l4.904-4.904c0.396-0.397,0.396-1.043,0-1.44c-0.396-0.396-1.043-0.396-1.439,0l-4.905,4.904
	l-4.904-4.904c-0.397-0.396-1.043-0.396-1.44,0c-0.396,0.397-0.396,1.043,0,1.44l4.904,4.904l-4.904,4.904
	c-0.396,0.398-0.396,1.041,0.002,1.441c0.396,0.396,1.041,0.396,1.438,0l4.904-4.904l4.905,4.904c0.396,0.396,1.041,0.396,1.438,0
	c0.398-0.4,0.398-1.043,0.002-1.441L18.086,16.514z"/>
</svg>
