<?xml version="1.0" encoding="utf-8"?>
<!-- Generator: Adobe Illustrator 19.0.0, SVG Export Plug-In . SVG Version: 6.00 Build 0)  -->
<svg version="1.1" id="Слой_1" xmlns="http://www.w3.org/2000/svg" xmlns:xlink="http://www.w3.org/1999/xlink" x="0px" y="0px"
	 viewBox="0 0 35.7 35.9" style="enable-background:new 0 0 35.7 35.9;" xml:space="preserve">
<style type="text/css">
	.st0{fill:#F2BB2E;}
	.st1{fill:#F2BB2E;stroke:#FFFFFF;stroke-width:2;stroke-miterlimit:10;}
</style>
<g>
	<g>
		<polygon class="st0" points="24,22.3 24,0 0,0 0,30.8 15.6,30.8 15.6,22.3 		"/>
	</g>
	<polygon class="st0" points="18.2,24.8 18.2,30.8 23.9,24.8 	"/>
</g>
<path class="st1" d="M34.2,11.2c-0.6-0.5-1.5-0.6-2.1-0.1L17.7,23l-9.6-5.8c-0.6-0.4-1.5-0.3-2,0.3c-0.5,0.5-0.6,1.4-0.1,2
	l10.4,14.7c0.3,0.4,0.8,0.7,1.3,0.7h0c0.5,0,1-0.2,1.3-0.6l15.4-21C34.9,12.6,34.8,11.7,34.2,11.2L34.2,11.2z M34.2,11.2"/>
</svg>
