<?xml version="1.0" encoding="utf-8"?>
<!-- Generator: Adobe Illustrator 16.0.0, SVG Export Plug-In . SVG Version: 6.00 Build 0)  -->
<!DOCTYPE svg PUBLIC "-//W3C//DTD SVG 1.1//EN" "http://www.w3.org/Graphics/SVG/1.1/DTD/svg11.dtd">
<svg version="1.1" id="Слой_1" xmlns="http://www.w3.org/2000/svg" xmlns:xlink="http://www.w3.org/1999/xlink" x="0px" y="0px"
	 width="33.292px" height="33.375px" viewBox="0 0 33.292 33.375" enable-background="new 0 0 33.292 33.375" xml:space="preserve">
<g>
	<g>
		<defs>
			<rect id="SVGID_1_" x="6.666" y="5.838" width="19.963" height="21.699"/>
		</defs>
		<clipPath id="SVGID_2_">
			<use xlink:href="#SVGID_1_"  overflow="visible"/>
		</clipPath>
		<path clip-path="url(#SVGID_2_)" d="M24.664,21.307c0.242-0.392,0.744-0.526,1.15-0.309l0.336,0.181
			c0.211,0.114,0.365,0.309,0.428,0.538c0.063,0.231,0.027,0.478-0.098,0.682c-0.48,0.781-1.059,1.501-1.719,2.136
			c-0.162,0.156-0.379,0.242-0.602,0.242c-0.016,0-0.029,0-0.043-0.001c-0.238-0.011-0.463-0.12-0.617-0.302l-0.25-0.291
			c-0.299-0.349-0.273-0.87,0.057-1.189C23.828,22.49,24.283,21.923,24.664,21.307L24.664,21.307z M24.664,21.307"/>
	</g>
	<path d="M17.875,25.411c0.723-0.053,1.438-0.193,2.127-0.419c0.436-0.144,0.908,0.076,1.076,0.502l0.143,0.356
		c0.09,0.223,0.082,0.471-0.02,0.688c-0.1,0.216-0.285,0.381-0.514,0.457c-0.469,0.155-0.951,0.28-1.438,0.371
		c-0.41,0.076-0.832,0.13-1.248,0.159c-0.022,0.001-0.042,0.002-0.061,0.002c-0.219,0-0.428-0.082-0.588-0.23
		c-0.176-0.162-0.277-0.39-0.281-0.628l-0.004-0.384C17.064,25.827,17.416,25.444,17.875,25.411L17.875,25.411z M17.875,25.411"/>
	<path d="M10.982,23.927c0.291-0.355,0.809-0.422,1.18-0.151c0.588,0.426,1.225,0.776,1.896,1.044
		c0.428,0.17,0.648,0.643,0.504,1.078l-0.121,0.364c-0.074,0.227-0.238,0.413-0.455,0.514c-0.117,0.055-0.242,0.082-0.369,0.082
		c-0.107,0-0.215-0.02-0.318-0.061c-0.852-0.337-1.66-0.781-2.4-1.322c-0.195-0.141-0.32-0.355-0.35-0.592
		c-0.031-0.237,0.039-0.477,0.189-0.661L10.982,23.927z M10.982,23.927"/>
	<path d="M7.453,18.256l0.375-0.07c0.453-0.083,0.893,0.199,1.004,0.646c0.174,0.711,0.438,1.396,0.783,2.036
		c0.219,0.404,0.084,0.908-0.307,1.15L8.984,22.22c-0.139,0.086-0.297,0.13-0.459,0.13c-0.074,0-0.148-0.009-0.223-0.028
		c-0.23-0.062-0.426-0.216-0.539-0.426c-0.439-0.811-0.775-1.679-0.994-2.58c-0.059-0.231-0.018-0.477,0.113-0.678
		C7.011,18.438,7.218,18.3,7.453,18.256L7.453,18.256z M7.453,18.256"/>
	<path d="M7.923,15.725H7.533c-0.479,0-0.867-0.389-0.867-0.868c0-0.07,0.008-0.139,0.023-0.204c0.324-1.728,1.08-3.37,2.188-4.757
		c1.678-2.098,4.063-3.489,6.713-3.918c0.572-0.093,1.158-0.14,1.736-0.14c1.491,0,2.969,0.312,4.329,0.906l0.678-0.676
		c0.139-0.14,0.342-0.196,0.533-0.149c0.191,0.048,0.344,0.191,0.404,0.38l1.398,4.465c0.064,0.201,0.01,0.419-0.139,0.568
		c-0.148,0.147-0.367,0.202-0.568,0.139l-4.465-1.399c-0.188-0.06-0.332-0.212-0.379-0.404c-0.047-0.191,0.01-0.394,0.15-0.533
		L20.02,8.38c-0.869-0.287-1.773-0.432-2.702-0.432c-2.65,0-5.123,1.192-6.787,3.271c-0.887,1.107-1.494,2.422-1.754,3.8
		C8.699,15.428,8.339,15.725,7.923,15.725L7.923,15.725z M7.923,15.725"/>
</g>
<g>
	<path d="M16.646,32.732c-8.848,0-16.045-7.197-16.045-16.045c0-8.847,7.197-16.045,16.045-16.045
		c8.848,0,16.045,7.198,16.045,16.045C32.691,25.535,25.494,32.732,16.646,32.732z M16.646,1.467
		c-8.393,0-15.221,6.828-15.221,15.221c0,8.395,6.828,15.223,15.221,15.223c8.393,0,15.221-6.828,15.221-15.223
		C31.867,8.295,25.039,1.467,16.646,1.467z"/>
	<path fill="#808285" d="M16.646,0.768c8.793,0,15.92,7.129,15.92,15.92s-7.127,15.92-15.92,15.92c-8.793,0-15.92-7.129-15.92-15.92
		S7.853,0.768,16.646,0.768 M16.646,32.035c8.475,0,15.346-6.871,15.346-15.348c0-8.476-6.871-15.346-15.346-15.346
		C8.169,1.342,1.3,8.212,1.3,16.688C1.3,25.164,8.169,32.035,16.646,32.035 M16.646,0.518c-8.916,0-16.17,7.254-16.17,16.17
		s7.254,16.17,16.17,16.17c8.917,0,16.17-7.254,16.17-16.17S25.563,0.518,16.646,0.518L16.646,0.518z M16.646,31.785
		c-8.324,0-15.096-6.773-15.096-15.098c0-8.324,6.771-15.096,15.096-15.096c8.325,0,15.096,6.772,15.096,15.096
		C31.742,25.012,24.971,31.785,16.646,31.785L16.646,31.785z"/>
</g>
</svg>
