<?xml version="1.0" encoding="iso-8859-1"?>
<!-- Generator: Adobe Illustrator 19.0.0, SVG Export Plug-In . SVG Version: 6.00 Build 0)  -->
<svg version="1.1" id="&#x421;&#x43B;&#x43E;&#x439;_1"
	 xmlns="http://www.w3.org/2000/svg" xmlns:xlink="http://www.w3.org/1999/xlink" x="0px" y="0px" viewBox="0 0 31.83 30.527"
	 style="enable-background:new 0 0 31.83 30.527;" xml:space="preserve">
<g>
	<g>
		<path style="fill:#FFFFFF;stroke:#FEC71E;stroke-width:2;stroke-miterlimit:10;" d="M30.348,13.421l-6.055,5.899l1.43,8.336
			c0.102,0.596-0.148,1.207-0.641,1.566c-0.277,0.197-0.609,0.305-0.938,0.305c-0.254,0-0.512-0.064-0.746-0.184l-7.485-3.938
			L8.43,29.344c-0.539,0.281-1.192,0.234-1.684-0.121c-0.492-0.359-0.742-0.965-0.637-1.566l1.43-8.332l-6.055-5.903
			c-0.437-0.425-0.593-1.062-0.406-1.64c0.188-0.578,0.688-1,1.293-1.09l8.367-1.215l3.742-7.582C14.75,1.343,15.305,1,15.914,1
			c0.61,0,1.165,0.343,1.434,0.89l3.746,7.582l8.367,1.219c0.601,0.086,1.102,0.508,1.289,1.09
			C30.942,12.359,30.781,12.996,30.348,13.421L30.348,13.421z M30.348,13.421"/>
	</g>
</g>
</svg>
