<?xml version="1.0" encoding="utf-8"?>
<!-- Generator: Adobe Illustrator 19.0.0, SVG Export Plug-In . SVG Version: 6.00 Build 0)  -->
<svg version="1.1" id="Слой_1" xmlns="http://www.w3.org/2000/svg" xmlns:xlink="http://www.w3.org/1999/xlink" x="0px" y="0px"
	 viewBox="0 0 13 14.3" style="enable-background:new 0 0 13 14.3;" xml:space="preserve">
<style type="text/css">
	.st0{fill:#959595;}
</style>
<path class="st0" d="M6.9,8.7l3.9,3.9c0.3,0.3,0.8,0.3,1-0.1c0.7-1.1,1.1-2.4,1.1-3.9c0-1.7-0.6-3.3-1.6-4.5L6.9,8.7z M6.9,8.7"/>
<path class="st0" d="M4.8,9V3.1C2.1,3.5,0,5.9,0,8.7c0,3.1,2.5,5.6,5.6,5.6c1.3,0,2.4-0.4,3.3-1.1L4.8,9z M4.8,9"/>
<path class="st0" d="M10.7,2.5c0.3-0.3,0.3-0.8-0.1-1C9.6,0.7,8.4,0.2,7.2,0C6.8-0.1,6.4,0.3,6.4,0.7v6.1L10.7,2.5z M10.7,2.5"/>
</svg>
