<?xml version="1.0" encoding="utf-8"?>
<!-- Generator: Adobe Illustrator 19.0.0, SVG Export Plug-In . SVG Version: 6.00 Build 0)  -->
<svg version="1.1" id="Слой_1" xmlns="http://www.w3.org/2000/svg" xmlns:xlink="http://www.w3.org/1999/xlink" x="0px" y="0px"
	 viewBox="-274 398.7 45.3 45.2" style="enable-background:new -274 398.7 45.3 45.2;" xml:space="preserve">
<style type="text/css">
	.st0{fill:#FDD049;}
</style>
<path class="st0" d="M-229.7,434.4l-7-7c-1.4-1.4-3.7-1.3-5.1,0.1l-3.5,3.5c-0.2-0.1-0.5-0.3-0.7-0.4c-2.2-1.2-5.3-2.9-8.5-6.1
	c-3.2-3.2-4.9-6.3-6.1-8.5c-0.1-0.2-0.3-0.5-0.4-0.7l2.4-2.4l1.2-1.2c1.4-1.4,1.5-3.8,0.1-5.1l-7-7c-1.4-1.4-3.7-1.3-5.1,0.1l-2,2
	l0,0.1c-0.7,0.8-1.2,1.8-1.6,2.9c-0.4,1-0.6,2-0.7,2.9c-0.9,7.7,2.6,14.7,12.1,24.1c13.1,13.1,23.7,12.1,24.2,12.1
	c1-0.1,1.9-0.4,2.9-0.7c1-0.4,2-1,2.9-1.6l0,0l2-2C-228.4,438.1-228.3,435.8-229.7,434.4L-229.7,434.4z"/>
</svg>
