<?xml version="1.0" encoding="iso-8859-1"?>
<!-- Generator: Adobe Illustrator 19.0.0, SVG Export Plug-In . SVG Version: 6.00 Build 0)  -->
<svg version="1.1" id="&#x421;&#x43B;&#x43E;&#x439;_1"
	 xmlns="http://www.w3.org/2000/svg" xmlns:xlink="http://www.w3.org/1999/xlink" x="0px" y="0px" viewBox="0 0 45.284 45.183"
	 style="enable-background:new 0 0 45.284 45.183;" xml:space="preserve">
<path style="fill:#CCCCCC;" d="M44.268,35.738l-6.992-6.996c-1.395-1.387-3.699-1.344-5.141,0.098l-3.523,3.524
	c-0.223-0.121-0.453-0.25-0.695-0.387c-2.227-1.234-5.27-2.922-8.477-6.129c-3.214-3.215-4.906-6.266-6.14-8.493
	c-0.133-0.234-0.258-0.46-0.379-0.679l2.363-2.36l1.164-1.164c1.442-1.445,1.485-3.75,0.094-5.14L9.546,1.016
	C8.159-0.375,5.851-0.332,4.404,1.113L2.437,3.094l0.05,0.054c-0.66,0.844-1.211,1.817-1.621,2.864
	c-0.379,1-0.617,1.953-0.722,2.906C-0.783,16.574,2.717,23.57,12.21,33.066c13.125,13.121,23.703,12.133,24.16,12.082
	c0.992-0.117,1.945-0.355,2.914-0.73c1.039-0.406,2.012-0.957,2.851-1.617l0.043,0.039l2-1.957
	C45.616,39.437,45.659,37.132,44.268,35.738L44.268,35.738z M44.268,35.738"/>
</svg>
