<?xml version="1.0" encoding="utf-8"?>
<!-- Generator: Adobe Illustrator 19.0.0, SVG Export Plug-In . SVG Version: 6.00 Build 0)  -->
<svg version="1.1" id="Слой_1" xmlns="http://www.w3.org/2000/svg" xmlns:xlink="http://www.w3.org/1999/xlink" x="0px" y="0px"
	 viewBox="0 0 19.2 19.3" style="enable-background:new 0 0 19.2 19.3;" xml:space="preserve">
<style type="text/css">
	.st0{clip-path:url(#SVGID_2_);fill:#959595;}
</style>
<g>
	<g>
		<defs>
			<rect id="SVGID_1_" x="0" y="-0.2" width="19.6" height="19.5"/>
		</defs>
		<clipPath id="SVGID_2_">
			<use xlink:href="#SVGID_1_"  style="overflow:visible;"/>
		</clipPath>
		<path class="st0" d="M15.2,0.4l-3,3c-0.6,0.6-0.6,1.6,0,2.2l1.5,1.5c-0.1,0.1-0.1,0.2-0.2,0.3C13.1,8.4,12.4,9.7,11,11
			c-1.4,1.4-2.7,2.1-3.6,2.6c-0.1,0.1-0.2,0.1-0.3,0.2l-1-1l-0.5-0.5c-0.6-0.6-1.6-0.6-2.2,0l-3,3c-0.6,0.6-0.6,1.6,0,2.2l0.8,0.8
			l0,0c0.4,0.3,0.8,0.5,1.2,0.7c0.4,0.2,0.8,0.3,1.2,0.3c3.3,0.4,6.2-1.1,10.3-5.1C19.7,8.5,19.3,4,19.2,3.8c0-0.4-0.2-0.8-0.3-1.2
			c-0.2-0.4-0.4-0.9-0.7-1.2l0,0l-0.8-0.9C16.8-0.1,15.8-0.1,15.2,0.4L15.2,0.4z M15.2,0.4"/>
	</g>
</g>
</svg>
