<?xml version="1.0" encoding="utf-8"?>
<!-- Generator: Adobe Illustrator 16.0.0, SVG Export Plug-In . SVG Version: 6.00 Build 0)  -->
<!DOCTYPE svg PUBLIC "-//W3C//DTD SVG 1.1//EN" "http://www.w3.org/Graphics/SVG/1.1/DTD/svg11.dtd">
<svg version="1.1" id="Слой_1" xmlns="http://www.w3.org/2000/svg" xmlns:xlink="http://www.w3.org/1999/xlink" x="0px" y="0px"
	 width="32px" height="32px" viewBox="0 0 32 32" enable-background="new 0 0 32 32" xml:space="preserve">
<circle fill="#F18376" cx="16" cy="16.111" r="15.882"/>
<g>
	<g>
		<defs>
			<rect id="SVGID_1_" x="7.794" y="6.415" width="16.413" height="19.5"/>
		</defs>
		<clipPath id="SVGID_2_">
			<use xlink:href="#SVGID_1_"  overflow="visible"/>
		</clipPath>
		<path clip-path="url(#SVGID_2_)" fill="#1D1C1A" d="M24.201,6.755c-0.045-0.189-0.193-0.347-0.445-0.34
			c-3.1,0.076-5.246,0.079-8.348,0.079c-0.034,0-0.066,0.005-0.098,0.011c-0.031-0.006-0.064-0.011-0.1-0.011
			c-3.101,0-3.816-0.003-6.916-0.079C8.042,6.408,7.896,6.567,7.85,6.755C7.836,6.799,7.825,6.844,7.817,6.892
			c-0.073,0.602,0.021,1.181,0.262,1.73c0.027,0.213,0.179,0.41,0.454,0.416C8.624,9.04,8.714,9.042,8.802,9.044
			c0.166,1.47,0.881,2.563,1.971,3.593c1.139,1.074,1.921,1.935,2.943,3.11c-2.063,1.395-3.729,4.854-4.172,7.502
			c-0.257,0.007-0.515,0.011-0.772,0.019c-0.044,0.001-0.085,0.01-0.123,0.021c-0.3-0.019-0.614,0.217-0.494,0.582
			c0.144,0.443,0.24,0.894,0.316,1.353c0,0.005,0.003,0.007,0.004,0.011c0.022,0.218,0.174,0.419,0.457,0.419
			c2.254,0,4.507,0.009,6.757,0.16c0.012,0,0.021-0.009,0.031-0.019c0.051,0.014,0.104,0.022,0.167,0.019
			c2.248-0.151,4.979-0.16,7.234-0.16c0.281,0,0.432-0.201,0.455-0.419c0.002-0.004,0.002-0.007,0.004-0.011
			c0.078-0.459,0.174-0.909,0.318-1.353c0.119-0.365-0.197-0.601-0.496-0.582c-0.037-0.011-0.078-0.02-0.123-0.021
			c-0.258-0.008-0.516-0.012-0.773-0.019c-0.441-2.647-2.109-6.107-4.17-7.502c1.021-1.176,1.771-2.002,2.941-3.11
			c1.09-1.031,1.805-2.123,1.971-3.593c0.09-0.002,0.178-0.003,0.27-0.006c0.275-0.006,0.426-0.203,0.455-0.416
			c0.24-0.55,0.334-1.129,0.26-1.73C24.227,6.844,24.215,6.799,24.201,6.755L24.201,6.755z M22.813,24.21
			c-0.039,0.162-0.07,0.325-0.102,0.488c-2.119,0.003-4.711,0.019-6.824,0.159c-0.059,0.004-0.11,0.018-0.157,0.037
			c-0.012-0.021-0.025-0.036-0.041-0.037c-2.113-0.141-4.229-0.156-6.348-0.159c-0.03-0.163-0.063-0.326-0.104-0.488
			c2.151-0.06,4.301-0.058,6.451,0.012c0.014,0,0.023-0.01,0.033-0.023c0.05,0.016,0.104,0.025,0.165,0.023
			C18.035,24.152,20.662,24.15,22.813,24.21L22.813,24.21z M17.275,15.555c-0.133,0.173-0.111,0.343-0.018,0.471
			c0.027,0.098,0.086,0.188,0.188,0.261c1.791,1.286,3.627,4.587,4.102,6.939c-1.729-0.027-3.934-0.014-5.66,0.042
			c-0.06,0.001-0.111,0.015-0.159,0.032c-0.013-0.019-0.025-0.032-0.039-0.032c-1.729-0.056-3.456-0.069-5.184-0.042
			c0.473-2.353,2.311-5.653,4.102-6.939c0.099-0.072,0.158-0.163,0.188-0.261c0.094-0.128,0.109-0.293-0.016-0.471
			c-1.653-2.34-4.606-3.405-5.022-6.487c2.076,0.049,2.943,0.064,5.536,0.129c0.006,0.002,0.011,0,0.019,0
			c0.007,0,0.013,0.002,0.02,0c2.59-0.064,4.889-0.08,6.965-0.129C21.879,12.149,18.996,13.285,17.275,15.555L17.275,15.555z
			 M23.166,8.092c-2.93,0.066-4.906,0.078-7.836,0.151c-0.007,0.001-0.013,0.002-0.02,0.003c-0.008-0.001-0.013-0.002-0.019-0.003
			c-2.93-0.073-3.477-0.085-6.406-0.151c-0.087-0.232-0.13-0.471-0.137-0.715c2.948,0.065,3.513,0.07,6.463,0.07
			c0.034,0,0.068-0.003,0.1-0.009c0.031,0.006,0.063,0.009,0.099,0.009c2.949,0,4.943-0.005,7.893-0.07
			C23.295,7.621,23.252,7.859,23.166,8.092L23.166,8.092z M23.166,8.092"/>
	</g>
</g>
</svg>
