<?xml version="1.0" encoding="utf-8"?>
<!-- Generator: Adobe Illustrator 19.0.0, SVG Export Plug-In . SVG Version: 6.00 Build 0)  -->
<svg version="1.1" id="Слой_1" xmlns="http://www.w3.org/2000/svg" xmlns:xlink="http://www.w3.org/1999/xlink" x="0px" y="0px"
	 viewBox="0 0 25 25" style="enable-background:new 0 0 25 25;" xml:space="preserve">
<style type="text/css">
	.st0{clip-path:url(#SVGID_2_);fill:#959595;}
	.st1{fill:#959595;}
</style>
<g>
	<g>
		<defs>
			<rect id="SVGID_1_" x="0" y="0" width="25" height="25"/>
		</defs>
		<clipPath id="SVGID_2_">
			<use xlink:href="#SVGID_1_"  style="overflow:visible;"/>
		</clipPath>
		<path class="st0" d="M22.2,2.3C22.7,2.3,25.3,0,24,0H0.3c-1.1,0,1.2,2.3,1.9,2.3h5.3v2.8H2L1.1,25h21.7L22,5.1h-4.5V2.3H22.2z
			 M19.2,15.2c0,3.7-3,6.7-6.7,6.7c-3.7,0-6.7-3-6.7-6.7s3-6.7,6.7-6.7C16.2,8.5,19.2,11.5,19.2,15.2L19.2,15.2z M19.2,15.2"/>
	</g>
	<path class="st1" d="M13.9,14.8L13.9,14.8c0-0.1-0.1-0.2-0.1-0.3l-1.1-3.3h-0.7l-0.9,3.4c0,0.1,0,0.1,0,0.2l0,0h0
		c0,0.1,0,0.1,0,0.2c0,0.8,0.6,1.4,1.4,1.4c0.8,0,1.4-0.6,1.4-1.4C14,15,13.9,14.9,13.9,14.8L13.9,14.8z M13.9,14.8"/>
</g>
</svg>
