<?xml version="1.0" encoding="iso-8859-1"?>
<!-- Generator: Adobe Illustrator 19.0.0, SVG Export Plug-In . SVG Version: 6.00 Build 0)  -->
<svg version="1.1" id="&#x421;&#x43B;&#x43E;&#x439;_1"
	 xmlns="http://www.w3.org/2000/svg" xmlns:xlink="http://www.w3.org/1999/xlink" x="0px" y="0px" viewBox="0 0 320.003 198.542"
	 style="enable-background:new 0 0 320.003 198.542;" xml:space="preserve">
<g>
	<g>
		<path d="M306.151,85.416H47.292l61.766-61.773c5.414-5.406,5.414-14.18,0-19.586c-5.411-5.41-14.184-5.41-19.586,0L4.058,89.476
			c-5.411,5.406-5.411,14.181,0,19.587l85.414,85.422c2.703,2.707,6.25,4.058,9.793,4.058c3.543,0,7.089-1.351,9.793-4.058
			c5.414-5.41,5.414-14.181,0-19.591L47.292,113.12h258.859c7.648,0,13.852-6.203,13.852-13.852
			C320.003,91.62,313.8,85.416,306.151,85.416L306.151,85.416z M306.151,85.416"/>
	</g>
</g>
</svg>
