<?xml version="1.0" encoding="iso-8859-1"?>
<!-- Generator: Adobe Illustrator 19.0.0, SVG Export Plug-In . SVG Version: 6.00 Build 0)  -->
<svg version="1.1" id="&#x421;&#x43B;&#x43E;&#x439;_1"
	 xmlns="http://www.w3.org/2000/svg" xmlns:xlink="http://www.w3.org/1999/xlink" x="0px" y="0px"
	 viewBox="-278 401.89 37.53 37.681" style="enable-background:new -278 401.89 37.53 37.681;" xml:space="preserve">
<g>
	<g>
		<defs>
			<rect id="SVGID_1_" x="-278" y="401.89" width="37.92" height="38"/>
		</defs>
		<clipPath id="SVGID_2_">
			<use xlink:href="#SVGID_1_"  style="overflow:visible;"/>
		</clipPath>
		<path style="clip-path:url(#SVGID_2_);fill:#898989;" d="M-253.945,438.672c-1.231,1.223-3.215,1.223-4.441,0l-17.298-16.222
			c-0.968-0.91-2.121-2.629-2.203-3.953c-0.222-3.579-0.066-10.435,0.043-14.068c0.039-1.328,1.153-2.437,2.477-2.468
			c4.644-0.106,14.48-0.223,15.398,0.695l19.047,17.234c1.227,1.223,0.117,4.321-1.117,5.552L-253.945,438.672z M-269.102,407.226
			c-1.039-1.035-2.718-1.035-3.753,0c-1.036,1.039-1.036,2.715,0,3.75c1.039,1.039,2.714,1.039,3.753,0
			C-268.066,409.941-268.066,408.265-269.102,407.226L-269.102,407.226z"/>
	</g>
</g>
</svg>
