<?xml version="1.0" encoding="iso-8859-1"?>
<!-- Generator: Adobe Illustrator 19.0.0, SVG Export Plug-In . SVG Version: 6.00 Build 0)  -->
<svg version="1.1" id="&#x421;&#x43B;&#x43E;&#x439;_1"
	 xmlns="http://www.w3.org/2000/svg" xmlns:xlink="http://www.w3.org/1999/xlink" x="0px" y="0px" viewBox="0 0 803.188 573.754"
	 style="enable-background:new 0 0 803.188 573.754;" xml:space="preserve">
<g>
	<path style="fill:#464646;" d="M401.703,401.766l-99.445-87.176L18.203,558.082c10.375,9.793,24.086,15.672,39.531,15.672h687.719
		c15.438,0,29.156-5.879,39.523-15.672L500.922,314.59L401.703,401.766z M401.703,401.766"/>
	<path style="fill:#464646;" d="M784.977,15.672C774.953,5.879,760.891,0,745.453,0H57.734C42.641,0,28.578,5.879,18.203,15.672
		l383.5,328.648L784.977,15.672z M784.977,15.672"/>
	<path style="fill:#464646;" d="M0,50.414v476.555l277.367-235.656L0,50.414z M0,50.414"/>
	<path style="fill:#464646;" d="M525.813,291.313l277.375,235.656V50.129L525.813,291.313z M525.813,291.313"/>
</g>
</svg>
