<?xml version="1.0" encoding="iso-8859-1"?>
<!-- Generator: Adobe Illustrator 19.0.0, SVG Export Plug-In . SVG Version: 6.00 Build 0)  -->
<svg version="1.1" id="&#x421;&#x43B;&#x43E;&#x439;_1"
	 xmlns="http://www.w3.org/2000/svg" xmlns:xlink="http://www.w3.org/1999/xlink" x="0px" y="0px"
	 viewBox="-104 352.576 489.603 489.603" style="enable-background:new -104 352.576 489.603 489.603;" xml:space="preserve">
<g>
	<path style="fill:#898989;" d="M-7.057,601.296c0,3.263,1.305,5.711,3.918,7.344l132.68,94.492
		c3.266,1.957,6.531,2.285,9.793,0.982c3.266-2.286,4.898-5.06,4.898-8.325v-44.554h119.461c2.609,0,4.734-0.895,6.363-2.692
		c1.633-1.797,2.449-4,2.449-6.609v-82.255c0-2.608-0.816-4.729-2.449-6.363c-1.629-1.633-3.754-2.448-6.363-2.448H144.232v-44.556
		c0-3.914-1.633-6.691-4.898-8.319c-3.262-1.31-6.527-0.982-9.793,0.979l-132.68,94.98C-5.752,595.585-7.057,598.031-7.057,601.296
		L-7.057,601.296z M140.802,842.179c-33.617,0-65.359-6.444-95.227-19.34c-29.867-12.89-55.813-30.355-77.848-52.387
		c-22.031-22.031-39.492-47.98-52.387-77.847C-97.551,662.742-104,630.998-104,597.377c0-22.52,2.938-44.226,8.813-65.117
		c5.879-20.887,14.117-40.391,24.727-58.508c10.609-18.113,23.336-34.597,38.188-49.449c14.852-14.852,31.336-27.582,49.449-38.186
		c18.117-10.61,37.621-18.849,58.512-24.728c20.887-5.875,42.594-8.813,65.113-8.813c22.524,0,44.227,2.938,65.117,8.813
		c20.891,5.879,40.391,14.117,58.508,24.728c18.114,10.608,34.598,23.335,49.449,38.186c14.852,14.853,27.582,31.336,38.188,49.449
		c10.609,18.117,18.851,37.621,24.727,58.508c5.874,20.893,8.812,42.599,8.812,65.118c0,22.524-2.938,44.228-8.812,65.117
		c-5.876,20.891-14.118,40.391-24.727,58.508c-10.606,18.114-23.336,34.599-38.188,49.449
		c-14.851,14.852-31.335,27.582-49.449,38.188c-18.117,10.609-37.617,18.853-58.508,24.728
		C185.029,839.242,163.326,842.179,140.802,842.179L140.802,842.179z"/>
</g>
</svg>
