<?xml version="1.0" encoding="iso-8859-1"?>
<!-- Generator: Adobe Illustrator 19.0.0, SVG Export Plug-In . SVG Version: 6.00 Build 0)  -->
<svg version="1.1" id="&#x420;&#x435;&#x436;&#x438;&#x43C;_&#x438;&#x437;&#x43E;&#x43B;&#x44F;&#x446;&#x438;&#x438;"
	 xmlns="http://www.w3.org/2000/svg" xmlns:xlink="http://www.w3.org/1999/xlink" x="0px" y="0px" viewBox="0 0 16 14.398"
	 style="enable-background:new 0 0 16 14.398;" xml:space="preserve">
<path style="fill:#464646;" d="M14.641,1.359L13.359,0L12,1.359L10.641,0L9.281,1.359L8,0L6.641,1.359L5.359,0L4,1.359L2.641,0
	L1.359,1.359L0,0v12.801c0,0.879,0.719,1.598,1.602,1.598h12.796c0.883,0,1.602-0.719,1.602-1.598V0L14.641,1.359z M6.438,12.801
	H1.602V8.567h4.835V12.801z M14.398,12.801H7.25v-0.844h7.148V12.801z M14.398,11.112H7.25v-0.844h7.148V11.112z M14.398,9.428H7.25
	V8.583h7.148V9.428z M14.398,7.398H1.602V5h12.796V7.398z M14.398,6.398"/>
</svg>
