<svg version="1.1" id="Слой_1" xmlns="http://www.w3.org/2000/svg" xmlns:xlink="http://www.w3.org/1999/xlink" x="0" y="0" viewBox="0 0 2636.22 2636.22" xml:space="preserve" enable-background="new 0 0 2636.22 2636.22">
  <circle cx="1318.11" cy="1318.11" r="1318.11" fill="#BBD637"/>
  <path d="M1318.11 2051.7c80.59 0 146.5-65.91 146.5-146.86h-293.36C1171.25 1985.78 1237.52 2051.7 1318.11 2051.7L1318.11 2051.7zM1794.87 1611.47v-403.33c0-227.46-154.03-410.85-366.79-462.08v-51.58c0-58.74-51.27-109.96-109.96-109.96 -58.74 0-109.92 51.22-109.92 109.97v51.58c-212.86 51.22-366.79 234.62-366.79 462.08v403.33l-146.91 146.86v73.43h1247.24v-73.43L1794.87 1611.47zM1794.87 1611.47" fill="#FFF"/>
</svg>
