<?xml version="1.0" encoding="iso-8859-1"?>
<!-- Generator: Adobe Illustrator 19.0.0, SVG Export Plug-In . SVG Version: 6.00 Build 0)  -->
<svg version="1.1" id="All_glyphs" xmlns="http://www.w3.org/2000/svg" xmlns:xlink="http://www.w3.org/1999/xlink" x="0px" y="0px"
	 viewBox="-255 378.89 84 84" style="enable-background:new -255 378.89 84 84;" xml:space="preserve">
<g>
	<path style="fill:#898989;" d="M-179.079,420.89c0-5.237,3.224-9.372,8.079-12.213c-0.874-2.923-2.033-5.723-3.459-8.36
		c-5.444,1.425-9.851-0.708-13.555-4.412c-3.704-3.704-4.838-8.112-3.413-13.555c-2.635-1.427-5.435-2.586-8.36-3.46
		c-2.842,4.856-7.975,8.079-13.213,8.079c-5.237,0-10.37-3.223-13.213-8.079c-2.923,0.873-5.723,2.033-8.359,3.458
		c1.424,5.444,0.291,9.852-3.413,13.557c-3.704,3.704-8.112,5.837-13.556,4.414c-1.426,2.634-2.585,5.434-3.459,8.358
		c4.856,2.841,8.079,6.976,8.079,12.213s-3.223,10.371-8.079,13.212c0.874,2.924,2.033,5.724,3.459,8.361
		c5.444-1.425,9.851-0.291,13.556,3.413c3.703,3.705,4.837,8.111,3.413,13.555c2.636,1.425,5.436,2.586,8.36,3.459
		c2.843-4.855,7.975-8.08,13.212-8.08c5.238,0,10.371,3.225,13.213,8.08c2.925-0.874,5.725-2.033,8.361-3.46
		c-1.424-5.442-0.292-9.849,3.412-13.554c3.704-3.704,8.111-5.838,13.555-4.413c1.426-2.637,2.585-5.437,3.459-8.361
		C-175.855,430.261-179.079,426.127-179.079,420.89z M-213,439.156c-10.087,0-18.265-8.178-18.265-18.266
		c0-10.088,8.177-18.266,18.265-18.266s18.265,8.178,18.265,18.266C-194.735,430.977-202.912,439.156-213,439.156z"/>
</g>
</svg>
