<?xml version="1.0" encoding="iso-8859-1"?>
<!-- Generator: Adobe Illustrator 19.0.0, SVG Export Plug-In . SVG Version: 6.00 Build 0)  -->
<svg version="1.1" xmlns="http://www.w3.org/2000/svg" xmlns:xlink="http://www.w3.org/1999/xlink" x="0px" y="0px"
	 viewBox="0 0 40 314.981" width="40" height="314.981" style="enable-background:new 0 0 40 314.981;" xml:space="preserve">
<g id="&#x41F;&#x440;&#x44F;&#x43C;&#x43E;&#x443;&#x433;&#x43E;&#x43B;&#x44C;&#x43D;&#x438;&#x43A;_3_1_" style="enable-background:new    ;">
	<g id="&#x41F;&#x440;&#x44F;&#x43C;&#x43E;&#x443;&#x433;&#x43E;&#x43B;&#x44C;&#x43D;&#x438;&#x43A;_3">
		<g>
			<rect y="-0.146" style="fill-rule:evenodd;clip-rule:evenodd;" width="36" height="5"/>
		</g>
	</g>
	
		<g id="&#x41F;&#x440;&#x44F;&#x43C;&#x43E;&#x443;&#x433;&#x43E;&#x43B;&#x44C;&#x43D;&#x438;&#x43A;_4_&#x43A;&#x43E;&#x43F;&#x438;&#x44F;_2.psb">
		<defs>
			<rect id="SVGID_1_" y="65.916" width="6" height="40"/>
		</defs>
		<clipPath id="SVGID_2_">
			<use xlink:href="#SVGID_1_"  style="overflow:visible;"/>
		</clipPath>
		
			<g id="&#x41F;&#x440;&#x44F;&#x43C;&#x43E;&#x443;&#x433;&#x43E;&#x43B;&#x44C;&#x43D;&#x438;&#x43A;_4" style="clip-path:url(#SVGID_2_);">
			<g>
				<rect y="65.916" style="fill-rule:evenodd;clip-rule:evenodd;fill:#464646;" width="6" height="6"/>
			</g>
		</g>
		
			<g id="&#x41F;&#x440;&#x44F;&#x43C;&#x43E;&#x443;&#x433;&#x43E;&#x43B;&#x44C;&#x43D;&#x438;&#x43A;_4_&#x43A;&#x43E;&#x43F;&#x438;&#x44F;" style="clip-path:url(#SVGID_2_);">
			<g>
				<rect y="82.916" style="fill-rule:evenodd;clip-rule:evenodd;fill:#464646;" width="6" height="6"/>
			</g>
		</g>
		
			<g id="&#x41F;&#x440;&#x44F;&#x43C;&#x43E;&#x443;&#x433;&#x43E;&#x43B;&#x44C;&#x43D;&#x438;&#x43A;_4_&#x43A;&#x43E;&#x43F;&#x438;&#x44F;_2" style="clip-path:url(#SVGID_2_);">
			<g>
				<rect y="99.916" style="fill-rule:evenodd;clip-rule:evenodd;fill:#464646;" width="6" height="6"/>
			</g>
		</g>
	</g>
</g>
<g id="&#x41F;&#x440;&#x44F;&#x43C;&#x43E;&#x443;&#x433;&#x43E;&#x43B;&#x44C;&#x43D;&#x438;&#x43A;_3_&#x43A;&#x43E;&#x43F;&#x438;&#x44F;_1_" style="enable-background:new    ;">
	
		<g id="&#x41F;&#x440;&#x44F;&#x43C;&#x43E;&#x443;&#x433;&#x43E;&#x43B;&#x44C;&#x43D;&#x438;&#x43A;_3_&#x43A;&#x43E;&#x43F;&#x438;&#x44F;_3_">
		<g>
			<rect y="9.854" style="fill-rule:evenodd;clip-rule:evenodd;" width="36" height="5"/>
		</g>
	</g>
	<g>
		<g>
			<defs>
				<rect id="SVGID_3_" y="25.323" width="40" height="39.593"/>
			</defs>
			<clipPath id="SVGID_4_">
				<use xlink:href="#SVGID_3_"  style="overflow:visible;"/>
			</clipPath>
			<g style="clip-path:url(#SVGID_4_);">
				<defs>
					<rect id="SVGID_5_" y="25.323" width="40" height="39.593"/>
				</defs>
				<clipPath id="SVGID_6_">
					<use xlink:href="#SVGID_5_"  style="overflow:visible;"/>
				</clipPath>
				<path style="clip-path:url(#SVGID_6_);fill:#080809;" d="M10.259,49.009c0,0.685-0.556,1.24-1.24,1.24H1.24
					c-0.685,0-1.24-0.556-1.24-1.24v-7.778c0-0.685,0.555-1.24,1.24-1.24h7.778c0.685,0,1.24,0.555,1.24,1.24V49.009z"/>
				<path style="clip-path:url(#SVGID_6_);fill:#080809;" d="M40,49.009c0,0.685-0.555,1.24-1.24,1.24h-7.778
					c-0.685,0-1.24-0.556-1.24-1.24v-7.778c0-0.685,0.556-1.24,1.24-1.24h7.778c0.685,0,1.24,0.555,1.24,1.24V49.009z"/>
				<path style="clip-path:url(#SVGID_6_);fill:#080809;" d="M23.89,25.323H16.11c-0.685,0-1.24,0.555-1.24,1.241v7.778
					c0,0.685,0.555,1.241,1.24,1.241h7.779c0.685,0,1.24-0.555,1.24-1.241v-7.778C25.13,25.879,24.574,25.323,23.89,25.323"/>
				<path style="clip-path:url(#SVGID_6_);fill:#080809;" d="M9.018,25.323H1.241C0.555,25.323,0,25.879,0,26.564v7.778
					c0,0.685,0.555,1.241,1.241,1.241h7.778c0.685,0,1.241-0.555,1.241-1.241v-7.778C10.259,25.879,9.704,25.323,9.018,25.323"/>
				<path style="clip-path:url(#SVGID_6_);fill:#080809;" d="M38.759,25.323h-7.777c-0.685,0-1.241,0.555-1.241,1.241v7.778
					c0,0.685,0.555,1.241,1.241,1.241h7.777c0.685,0,1.241-0.555,1.241-1.241v-7.778C40,25.879,39.445,25.323,38.759,25.323"/>
				<path style="clip-path:url(#SVGID_6_);fill:#080809;" d="M23.89,39.99H16.11c-0.685,0-1.24,0.555-1.24,1.241v7.777
					c0,0.685,0.555,1.241,1.24,1.241h7.779c0.685,0,1.24-0.556,1.24-1.241v-7.777C25.13,40.545,24.574,39.99,23.89,39.99"/>
				<path style="clip-path:url(#SVGID_6_);fill:#080809;" d="M23.89,54.657H16.11c-0.685,0-1.24,0.555-1.24,1.241v7.777
					c0,0.685,0.555,1.241,1.24,1.241h7.779c0.685,0,1.24-0.555,1.24-1.241v-7.777C25.13,55.212,24.574,54.657,23.89,54.657"/>
				<path style="clip-path:url(#SVGID_6_);fill:#080809;" d="M10.259,63.676c0,0.685-0.556,1.24-1.24,1.24H1.24
					c-0.685,0-1.24-0.556-1.24-1.24v-7.778c0-0.685,0.555-1.24,1.24-1.24h7.778c0.685,0,1.24,0.555,1.24,1.24V63.676z"/>
				<path style="clip-path:url(#SVGID_6_);fill:#080809;" d="M40,63.676c0,0.685-0.555,1.24-1.24,1.24h-7.778
					c-0.685,0-1.24-0.556-1.24-1.24v-7.778c0-0.685,0.556-1.24,1.24-1.24h7.778c0.685,0,1.24,0.555,1.24,1.24V63.676z"/>
			</g>
		</g>
	</g>
	<g>
		<g>
			<defs>
				<rect id="SVGID_7_" y="106.916" width="28.062" height="28.003"/>
			</defs>
			<clipPath id="SVGID_8_">
				<use xlink:href="#SVGID_7_"  style="overflow:visible;"/>
			</clipPath>
			<g style="clip-path:url(#SVGID_8_);">
				<defs>
					<rect id="SVGID_9_" y="106.916" width="28.063" height="28.003"/>
				</defs>
				<clipPath id="SVGID_10_">
					<use xlink:href="#SVGID_9_"  style="overflow:visible;"/>
				</clipPath>
				<path style="clip-path:url(#SVGID_10_);fill-rule:evenodd;clip-rule:evenodd;fill:#949594" d="M12.542,109.835v12.537l12.537,0.005
					c0,6.93-5.612,12.543-12.537,12.543C5.618,134.92,0,129.307,0,122.377c0-6.902,5.576-12.501,12.47-12.542H12.542z"/>
				<path style="clip-path:url(#SVGID_10_);fill-rule:evenodd;clip-rule:evenodd;fill:#949594" d="M15.764,106.916
					c6.795,0,12.298,5.507,12.298,12.298l-12.307,0.013C15.755,119.227,15.718,106.916,15.764,106.916"/>
			</g>
		</g>
	</g>
	<g>
		<g>
			<defs>
				<rect id="SVGID_11_" y="135.919" width="28.062" height="32.477"/>
			</defs>
			<clipPath id="SVGID_12_">
				<use xlink:href="#SVGID_11_"  style="overflow:visible;"/>
			</clipPath>
			<g style="clip-path:url(#SVGID_12_);">
				<defs>
					<rect id="SVGID_13_" y="135.919" width="28.06" height="32.477"/>
				</defs>
				<clipPath id="SVGID_14_">
					<use xlink:href="#SVGID_13_"  style="overflow:visible;"/>
				</clipPath>
				<path style="clip-path:url(#SVGID_14_);fill:#949594" d="M14.919,154.729l8.5,8.526c0.676,0.676,1.717,0.626,2.232-0.186
					c1.522-2.412,2.41-5.27,2.41-8.34c0-3.687-1.284-7.069-3.417-9.75L14.919,154.729z"/>
				<path style="clip-path:url(#SVGID_14_);fill:#949594" d="M10.394,155.448v-12.735C4.516,143.557,0,148.606,0,154.729
					c0,6.716,5.43,12.162,12.129,12.162c2.724,0,5.227-0.914,7.247-2.436L10.394,155.448z"/>
				<path style="clip-path:url(#SVGID_14_);fill:#949594" d="M23.089,141.274c0.676-0.678,0.634-1.726-0.152-2.267
					c-2.174-1.507-4.67-2.564-7.368-3.062c-0.938-0.169-1.717,0.541-1.717,1.496v13.101L23.089,141.274z"/>
			</g>
		</g>
	</g>
	<g>
		<g>
			<defs>
				<rect id="SVGID_15_" y="168.397" width="26" height="25.999"/>
			</defs>
			<clipPath id="SVGID_16_">
				<use xlink:href="#SVGID_15_"  style="overflow:visible;"/>
			</clipPath>
			<path style="clip-path:url(#SVGID_16_);fill:#949594" d="M0,194.395h5.572L0,188.829V194.395z M20.432,168.397L1.859,186.969l5.567,5.572
				L26,173.969L20.432,168.397z"/>
		</g>
	</g>
	<g>
		<g>
			<defs>
				<rect id="SVGID_17_" y="195.395" width="32" height="32"/>
			</defs>
			<clipPath id="SVGID_18_">
				<use xlink:href="#SVGID_17_"  style="overflow:visible;"/>
			</clipPath>
			<g style="clip-path:url(#SVGID_18_);">
				<defs>
					<rect id="SVGID_19_" y="195.395" width="32" height="32"/>
				</defs>
				<clipPath id="SVGID_20_">
					<use xlink:href="#SVGID_19_"  style="overflow:visible;"/>
				</clipPath>
				<path style="clip-path:url(#SVGID_20_);fill:#949594" d="M27.188,200.061c-6.219-6.219-16.301-6.219-22.523,0
					c-6.219,6.219-6.219,16.304,0,22.523c6.221,6.219,16.304,6.229,22.523,0C33.417,216.365,33.417,206.28,27.188,200.061
					 M24.385,212.322h-8.533c-0.579,0-1.061-0.48-1.061-1.064v-10.677c0-0.584,0.483-1.061,1.061-1.061
					c0.595,0,1.075,0.477,1.075,1.061v9.605h7.459c0.595,0,1.072,0.477,1.072,1.061C25.457,211.842,24.98,212.322,24.385,212.322"/>
			</g>
		</g>
	</g>
	<g>
		<g>
			<defs>
				<rect id="SVGID_21_" y="228.395" width="32" height="32"/>
			</defs>
			<clipPath id="SVGID_22_">
				<use xlink:href="#SVGID_21_"  style="overflow:visible;"/>
			</clipPath>
			<g style="clip-path:url(#SVGID_22_);">
				<defs>
					<rect id="SVGID_23_" y="228.395" width="32" height="32"/>
				</defs>
				<clipPath id="SVGID_24_">
					<use xlink:href="#SVGID_23_"  style="overflow:visible;"/>
				</clipPath>
				<path style="clip-path:url(#SVGID_24_);fill:#949594" d="M15.968,239.147c0.875,0,1.616,0.304,2.224,0.912
					c0.608,0.608,0.912,1.349,0.912,2.224s-0.304,1.616-0.912,2.224c-0.608,0.608-1.349,0.912-2.224,0.912
					c-0.875,0-1.616-0.304-2.224-0.912c-0.608-0.608-0.912-1.349-0.912-2.224s0.304-1.616,0.912-2.224
					C14.352,239.451,15.093,239.147,15.968,239.147 M23.776,242.347c0-1.067-0.202-2.069-0.608-3.008
					c-0.405-0.939-0.96-1.76-1.664-2.464c-0.704-0.705-1.525-1.264-2.464-1.68c-0.939-0.416-1.941-0.624-3.008-0.624h-0.064
					c-1.067,0-2.069,0.208-3.008,0.624c-0.939,0.416-1.76,0.976-2.464,1.68c-0.704,0.704-1.259,1.525-1.664,2.464
					c-0.405,0.938-0.608,1.941-0.608,3.008v0.224c0,0.043,0.011,0.075,0.032,0.096c0,0.427,0.053,0.885,0.16,1.376
					c0.043,0.299,0.192,0.725,0.448,1.28c0.256,0.555,0.565,1.163,0.928,1.824c0.363,0.661,0.752,1.349,1.168,2.064
					c0.416,0.715,0.816,1.376,1.2,1.984c0.384,0.608,0.725,1.131,1.024,1.568c0.299,0.437,0.512,0.72,0.64,0.848
					c0.171,0.171,0.368,0.352,0.592,0.544c0.224,0.192,0.443,0.363,0.656,0.512c0.213,0.149,0.405,0.266,0.576,0.352
					c0.171,0.086,0.288,0.128,0.352,0.128c0.064,0,0.176-0.042,0.336-0.128c0.16-0.085,0.347-0.197,0.56-0.336
					c0.213-0.139,0.432-0.304,0.656-0.496c0.224-0.192,0.432-0.384,0.624-0.576c0.128-0.128,0.341-0.411,0.64-0.848
					c0.299-0.437,0.64-0.965,1.024-1.584c0.384-0.618,0.784-1.28,1.2-1.984c0.416-0.704,0.805-1.392,1.168-2.063
					c0.363-0.672,0.667-1.28,0.912-1.824c0.246-0.544,0.4-0.965,0.464-1.264c0.043-0.235,0.074-0.464,0.096-0.688
					c0.021-0.224,0.043-0.453,0.064-0.688v-0.096c0-0.042,0.006-0.074,0.016-0.096c0.01-0.021,0.016-0.053,0.016-0.096V242.347z
					 M16,228.395c2.197,0,4.272,0.421,6.224,1.264c1.952,0.843,3.648,1.984,5.088,3.424c1.44,1.44,2.582,3.136,3.424,5.088
					c0.843,1.952,1.264,4.027,1.264,6.224c0,1.472-0.192,2.89-0.576,4.256c-0.384,1.366-0.922,2.64-1.616,3.824
					c-0.693,1.184-1.525,2.262-2.496,3.232c-0.97,0.971-2.047,1.803-3.232,2.496c-1.184,0.693-2.459,1.232-3.824,1.616
					c-1.366,0.384-2.784,0.576-4.256,0.576c-1.472,0-2.891-0.192-4.256-0.576c-1.365-0.384-2.64-0.923-3.824-1.616
					c-1.184-0.694-2.261-1.526-3.232-2.496c-0.971-0.97-1.803-2.048-2.496-3.232c-0.693-1.184-1.232-2.459-1.616-3.824
					C0.192,247.285,0,245.867,0,244.395s0.192-2.891,0.576-4.256c0.384-1.366,0.923-2.64,1.616-3.824
					c0.693-1.184,1.525-2.261,2.496-3.232c0.971-0.971,2.048-1.803,3.232-2.496c1.184-0.693,2.459-1.232,3.824-1.616
					C13.109,228.587,14.528,228.395,16,228.395"/>
			</g>
		</g>
	</g>
	<g>
		<g>
			<defs>
				<rect id="SVGID_25_" y="261.395" width="32" height="22.482"/>
			</defs>
			<clipPath id="SVGID_26_">
				<use xlink:href="#SVGID_25_"  style="overflow:visible;"/>
			</clipPath>
			<g style="clip-path:url(#SVGID_26_);">
				<defs>
					<rect id="SVGID_27_" y="261.395" width="32" height="22.482"/>
				</defs>
				<clipPath id="SVGID_28_">
					<use xlink:href="#SVGID_27_"  style="overflow:visible;"/>
				</clipPath>
				<path style="clip-path:url(#SVGID_28_);fill:#949594" d="M29.229,261.395H2.766c-1.554,0-2.766,1.209-2.766,2.766v16.95
					c0,1.558,1.212,2.765,2.766,2.765h26.463c1.558,0,2.771-1.207,2.771-2.765v-16.95C32,262.604,30.787,261.395,29.229,261.395
					 M3.028,266.15c0-0.693,0.603-1.296,1.296-1.296h14.704c0.688,0,1.296,0.603,1.296,1.296s-0.609,1.296-1.296,1.296H4.324
					C3.631,267.447,3.028,266.843,3.028,266.15 M19.715,281.373c-2.419,0-4.408-1.993-4.408-4.413c0-2.419,1.989-4.324,4.408-4.324
					c2.424,0,4.413,1.989,4.413,4.413C24.128,279.468,22.139,281.373,19.715,281.373 M24.821,281.458c-0.262,0-0.609,0-0.866-0.084
					c1.123-1.128,1.732-2.597,1.732-4.324c0-1.732-0.693-3.201-1.732-4.324c0.257-0.089,0.52-0.089,0.866-0.089
					c2.508,0,4.408,1.989,4.408,4.413C29.229,279.468,27.24,281.458,24.821,281.458"/>
			</g>
		</g>
	</g>
	<g>
		<g>
			<defs>
				<rect id="SVGID_29_" x="0" y="284.877" width="30" height="30.104"/>
			</defs>
			<clipPath id="SVGID_30_">
				<use xlink:href="#SVGID_29_"  style="overflow:visible;"/>
			</clipPath>
			<g style="clip-path:url(#SVGID_30_);">
				<defs>
					<rect id="SVGID_31_" x="0" y="284.877" width="29.999" height="30.104"/>
				</defs>
				<clipPath id="SVGID_32_">
					<use xlink:href="#SVGID_31_"  style="overflow:visible;"/>
				</clipPath>
				<path style="clip-path:url(#SVGID_32_);fill:#949594;" d="M1.027,308.265l4.575-4.577c0.914-0.908,2.423-0.88,3.365,0.063
					l2.306,2.306c0.146-0.08,0.295-0.164,0.455-0.255c1.458-0.807,3.449-1.911,5.548-4.01c2.103-2.105,3.21-4.101,4.018-5.557
					c0.088-0.154,0.171-0.301,0.25-0.446l-1.547-1.544l-0.762-0.762c-0.943-0.945-0.973-2.454-0.06-3.365l4.577-4.578
					c0.908-0.91,2.418-0.882,3.363,0.065l1.289,1.297l-0.034,0.035c0.433,0.552,0.794,1.189,1.062,1.873
					c0.247,0.655,0.404,1.28,0.473,1.902c0.605,5.012-1.685,9.59-7.897,15.805c-8.59,8.587-15.511,7.938-15.812,7.908
					c-0.65-0.077-1.274-0.234-1.907-0.478c-0.679-0.267-1.315-0.627-1.865-1.059l-0.029,0.023l-1.307-1.28
					C0.146,310.685,0.116,309.179,1.027,308.265"/>
			</g>
		</g>
	</g>
</g>
<g id="&#x41F;&#x440;&#x44F;&#x43C;&#x43E;&#x443;&#x433;&#x43E;&#x43B;&#x44C;&#x43D;&#x438;&#x43A;_3_&#x43A;&#x43E;&#x43F;&#x438;&#x44F;_2_1_" style="enable-background:new    ;">
	
		<g id="&#x41F;&#x440;&#x44F;&#x43C;&#x43E;&#x443;&#x433;&#x43E;&#x43B;&#x44C;&#x43D;&#x438;&#x43A;_3_&#x43A;&#x43E;&#x43F;&#x438;&#x44F;_2">
		<g>
			<rect y="19.854" style="fill-rule:evenodd;clip-rule:evenodd;" width="36" height="5"/>
		</g>
	</g>
</g>
</svg>
