<?xml version="1.0" encoding="iso-8859-1"?>
<!-- Generator: Adobe Illustrator 19.0.0, SVG Export Plug-In . SVG Version: 6.00 Build 0)  -->
<svg version="1.1" id="&#x420;&#x435;&#x436;&#x438;&#x43C;_&#x438;&#x437;&#x43E;&#x43B;&#x44F;&#x446;&#x438;&#x438;"
	 xmlns="http://www.w3.org/2000/svg" xmlns:xlink="http://www.w3.org/1999/xlink" x="0px" y="0px"
	 viewBox="22 32.409 639.359 776.481" style="enable-background:new 22 32.409 639.359 776.481;" xml:space="preserve">
<g>
	<g>
		<path style="fill:#EAB639;" d="M341.68,146.647c14.16,0,28.16,0.883,41.999,2.563v-36.801h25.281c17.68,0,32-14.32,32-32v-16
			c0-17.68-14.32-32-32-32H274.398c-17.679,0-32,14.32-32,32v16c0,17.68,14.321,32,32,32h25.282v36.801
			C313.52,147.53,327.52,146.647,341.68,146.647L341.68,146.647z"/>
		<path style="fill:#EAB639;" d="M341.68,808.89c176.558,0,319.679-143.121,319.679-319.68c0-80.242-29.52-153.52-78.32-209.602
			c-28.48-32.801-63.598-59.679-103.199-78.719c-29.762-14.32-62.16-24.082-96.16-28.558c-13.758-1.844-27.758-2.723-41.999-2.723
			c-14.239,0-28.239,0.962-42,2.723C142.961,192.889,22,326.968,22,489.21C22,665.768,165.121,808.89,341.68,808.89L341.68,808.89z
			 M429.762,266.647c41.277,16.321,76.879,43.762,103.199,78.723c23.52,31.199,39.598,68.398,45.52,108.879
			c1.68,11.441,2.559,23.199,2.559,35.121H340.16V249.85h1.52c11.441,0,22.718,0.797,33.679,2.399
			C394.32,254.889,412.48,259.768,429.762,266.647L429.762,266.647z"/>
	</g>
</g>
</svg>
